%TF.GenerationSoftware,KiCad,Pcbnew,(5.1.8)-1*%
%TF.CreationDate,2021-04-30T16:31:18-07:00*%
%TF.ProjectId,ISA8_Ethernet,49534138-5f45-4746-9865-726e65742e6b,1.0*%
%TF.SameCoordinates,Original*%
%TF.FileFunction,Soldermask,Top*%
%TF.FilePolarity,Negative*%
%FSLAX46Y46*%
G04 Gerber Fmt 4.6, Leading zero omitted, Abs format (unit mm)*
G04 Created by KiCad (PCBNEW (5.1.8)-1) date 2021-04-30 16:31:18*
%MOMM*%
%LPD*%
G01*
G04 APERTURE LIST*
%ADD10C,1.524000*%
%ADD11R,1.524000X1.524000*%
%ADD12C,1.397000*%
%ADD13R,1.397000X1.397000*%
%ADD14R,0.500000X0.800000*%
%ADD15R,0.400000X0.800000*%
%ADD16C,6.400000*%
%ADD17C,0.800000*%
%ADD18R,1.900000X1.900000*%
%ADD19C,1.900000*%
%ADD20C,1.890000*%
%ADD21C,2.600000*%
%ADD22C,3.250000*%
G04 APERTURE END LIST*
D10*
%TO.C,J2*%
X107950000Y-113030000D03*
X105410000Y-113030000D03*
X107950000Y-110490000D03*
X105410000Y-110490000D03*
X107950000Y-107950000D03*
X105410000Y-107950000D03*
X107950000Y-105410000D03*
X105410000Y-105410000D03*
X107950000Y-102870000D03*
X105410000Y-102870000D03*
X105410000Y-100330000D03*
X107950000Y-100330000D03*
X105410000Y-97790000D03*
X107950000Y-97790000D03*
X107950000Y-95250000D03*
X105410000Y-95250000D03*
X107950000Y-92710000D03*
X105410000Y-92710000D03*
X107950000Y-90170000D03*
X105410000Y-90170000D03*
X107950000Y-87630000D03*
X105410000Y-87630000D03*
X107950000Y-85090000D03*
X105410000Y-85090000D03*
X107950000Y-82550000D03*
X105410000Y-82550000D03*
X107950000Y-80010000D03*
X105410000Y-80010000D03*
X107950000Y-77470000D03*
X105410000Y-77470000D03*
X107950000Y-74930000D03*
X105410000Y-74930000D03*
X107950000Y-72390000D03*
X105410000Y-72390000D03*
X107950000Y-69850000D03*
X105410000Y-69850000D03*
X107950000Y-67310000D03*
X105410000Y-67310000D03*
X107950000Y-64770000D03*
D11*
X105410000Y-64770000D03*
%TD*%
%TO.C,BUS1*%
G36*
G01*
X179451000Y-134112000D02*
X179451000Y-126873000D01*
G75*
G02*
X179895500Y-126428500I444500J0D01*
G01*
X180784500Y-126428500D01*
G75*
G02*
X181229000Y-126873000I0J-444500D01*
G01*
X181229000Y-134112000D01*
G75*
G02*
X180784500Y-134556500I-444500J0D01*
G01*
X179895500Y-134556500D01*
G75*
G02*
X179451000Y-134112000I0J444500D01*
G01*
G37*
G36*
G01*
X176911000Y-134112000D02*
X176911000Y-126873000D01*
G75*
G02*
X177355500Y-126428500I444500J0D01*
G01*
X178244500Y-126428500D01*
G75*
G02*
X178689000Y-126873000I0J-444500D01*
G01*
X178689000Y-134112000D01*
G75*
G02*
X178244500Y-134556500I-444500J0D01*
G01*
X177355500Y-134556500D01*
G75*
G02*
X176911000Y-134112000I0J444500D01*
G01*
G37*
G36*
G01*
X174371000Y-134112000D02*
X174371000Y-126873000D01*
G75*
G02*
X174815500Y-126428500I444500J0D01*
G01*
X175704500Y-126428500D01*
G75*
G02*
X176149000Y-126873000I0J-444500D01*
G01*
X176149000Y-134112000D01*
G75*
G02*
X175704500Y-134556500I-444500J0D01*
G01*
X174815500Y-134556500D01*
G75*
G02*
X174371000Y-134112000I0J444500D01*
G01*
G37*
G36*
G01*
X171831000Y-134112000D02*
X171831000Y-126873000D01*
G75*
G02*
X172275500Y-126428500I444500J0D01*
G01*
X173164500Y-126428500D01*
G75*
G02*
X173609000Y-126873000I0J-444500D01*
G01*
X173609000Y-134112000D01*
G75*
G02*
X173164500Y-134556500I-444500J0D01*
G01*
X172275500Y-134556500D01*
G75*
G02*
X171831000Y-134112000I0J444500D01*
G01*
G37*
G36*
G01*
X169291000Y-134112000D02*
X169291000Y-126873000D01*
G75*
G02*
X169735500Y-126428500I444500J0D01*
G01*
X170624500Y-126428500D01*
G75*
G02*
X171069000Y-126873000I0J-444500D01*
G01*
X171069000Y-134112000D01*
G75*
G02*
X170624500Y-134556500I-444500J0D01*
G01*
X169735500Y-134556500D01*
G75*
G02*
X169291000Y-134112000I0J444500D01*
G01*
G37*
G36*
G01*
X166751000Y-134112000D02*
X166751000Y-126873000D01*
G75*
G02*
X167195500Y-126428500I444500J0D01*
G01*
X168084500Y-126428500D01*
G75*
G02*
X168529000Y-126873000I0J-444500D01*
G01*
X168529000Y-134112000D01*
G75*
G02*
X168084500Y-134556500I-444500J0D01*
G01*
X167195500Y-134556500D01*
G75*
G02*
X166751000Y-134112000I0J444500D01*
G01*
G37*
G36*
G01*
X164211000Y-134112000D02*
X164211000Y-126873000D01*
G75*
G02*
X164655500Y-126428500I444500J0D01*
G01*
X165544500Y-126428500D01*
G75*
G02*
X165989000Y-126873000I0J-444500D01*
G01*
X165989000Y-134112000D01*
G75*
G02*
X165544500Y-134556500I-444500J0D01*
G01*
X164655500Y-134556500D01*
G75*
G02*
X164211000Y-134112000I0J444500D01*
G01*
G37*
G36*
G01*
X161671000Y-134112000D02*
X161671000Y-126873000D01*
G75*
G02*
X162115500Y-126428500I444500J0D01*
G01*
X163004500Y-126428500D01*
G75*
G02*
X163449000Y-126873000I0J-444500D01*
G01*
X163449000Y-134112000D01*
G75*
G02*
X163004500Y-134556500I-444500J0D01*
G01*
X162115500Y-134556500D01*
G75*
G02*
X161671000Y-134112000I0J444500D01*
G01*
G37*
G36*
G01*
X159131000Y-134112000D02*
X159131000Y-126873000D01*
G75*
G02*
X159575500Y-126428500I444500J0D01*
G01*
X160464500Y-126428500D01*
G75*
G02*
X160909000Y-126873000I0J-444500D01*
G01*
X160909000Y-134112000D01*
G75*
G02*
X160464500Y-134556500I-444500J0D01*
G01*
X159575500Y-134556500D01*
G75*
G02*
X159131000Y-134112000I0J444500D01*
G01*
G37*
G36*
G01*
X156591000Y-134112000D02*
X156591000Y-126873000D01*
G75*
G02*
X157035500Y-126428500I444500J0D01*
G01*
X157924500Y-126428500D01*
G75*
G02*
X158369000Y-126873000I0J-444500D01*
G01*
X158369000Y-134112000D01*
G75*
G02*
X157924500Y-134556500I-444500J0D01*
G01*
X157035500Y-134556500D01*
G75*
G02*
X156591000Y-134112000I0J444500D01*
G01*
G37*
G36*
G01*
X154051000Y-134112000D02*
X154051000Y-126873000D01*
G75*
G02*
X154495500Y-126428500I444500J0D01*
G01*
X155384500Y-126428500D01*
G75*
G02*
X155829000Y-126873000I0J-444500D01*
G01*
X155829000Y-134112000D01*
G75*
G02*
X155384500Y-134556500I-444500J0D01*
G01*
X154495500Y-134556500D01*
G75*
G02*
X154051000Y-134112000I0J444500D01*
G01*
G37*
G36*
G01*
X151511000Y-134112000D02*
X151511000Y-126873000D01*
G75*
G02*
X151955500Y-126428500I444500J0D01*
G01*
X152844500Y-126428500D01*
G75*
G02*
X153289000Y-126873000I0J-444500D01*
G01*
X153289000Y-134112000D01*
G75*
G02*
X152844500Y-134556500I-444500J0D01*
G01*
X151955500Y-134556500D01*
G75*
G02*
X151511000Y-134112000I0J444500D01*
G01*
G37*
G36*
G01*
X148971000Y-134112000D02*
X148971000Y-126873000D01*
G75*
G02*
X149415500Y-126428500I444500J0D01*
G01*
X150304500Y-126428500D01*
G75*
G02*
X150749000Y-126873000I0J-444500D01*
G01*
X150749000Y-134112000D01*
G75*
G02*
X150304500Y-134556500I-444500J0D01*
G01*
X149415500Y-134556500D01*
G75*
G02*
X148971000Y-134112000I0J444500D01*
G01*
G37*
G36*
G01*
X146431000Y-134112000D02*
X146431000Y-126873000D01*
G75*
G02*
X146875500Y-126428500I444500J0D01*
G01*
X147764500Y-126428500D01*
G75*
G02*
X148209000Y-126873000I0J-444500D01*
G01*
X148209000Y-134112000D01*
G75*
G02*
X147764500Y-134556500I-444500J0D01*
G01*
X146875500Y-134556500D01*
G75*
G02*
X146431000Y-134112000I0J444500D01*
G01*
G37*
G36*
G01*
X143891000Y-134112000D02*
X143891000Y-126873000D01*
G75*
G02*
X144335500Y-126428500I444500J0D01*
G01*
X145224500Y-126428500D01*
G75*
G02*
X145669000Y-126873000I0J-444500D01*
G01*
X145669000Y-134112000D01*
G75*
G02*
X145224500Y-134556500I-444500J0D01*
G01*
X144335500Y-134556500D01*
G75*
G02*
X143891000Y-134112000I0J444500D01*
G01*
G37*
G36*
G01*
X141351000Y-134112000D02*
X141351000Y-126873000D01*
G75*
G02*
X141795500Y-126428500I444500J0D01*
G01*
X142684500Y-126428500D01*
G75*
G02*
X143129000Y-126873000I0J-444500D01*
G01*
X143129000Y-134112000D01*
G75*
G02*
X142684500Y-134556500I-444500J0D01*
G01*
X141795500Y-134556500D01*
G75*
G02*
X141351000Y-134112000I0J444500D01*
G01*
G37*
G36*
G01*
X138811000Y-134112000D02*
X138811000Y-126873000D01*
G75*
G02*
X139255500Y-126428500I444500J0D01*
G01*
X140144500Y-126428500D01*
G75*
G02*
X140589000Y-126873000I0J-444500D01*
G01*
X140589000Y-134112000D01*
G75*
G02*
X140144500Y-134556500I-444500J0D01*
G01*
X139255500Y-134556500D01*
G75*
G02*
X138811000Y-134112000I0J444500D01*
G01*
G37*
G36*
G01*
X136271000Y-134112000D02*
X136271000Y-126873000D01*
G75*
G02*
X136715500Y-126428500I444500J0D01*
G01*
X137604500Y-126428500D01*
G75*
G02*
X138049000Y-126873000I0J-444500D01*
G01*
X138049000Y-134112000D01*
G75*
G02*
X137604500Y-134556500I-444500J0D01*
G01*
X136715500Y-134556500D01*
G75*
G02*
X136271000Y-134112000I0J444500D01*
G01*
G37*
G36*
G01*
X133731000Y-134112000D02*
X133731000Y-126873000D01*
G75*
G02*
X134175500Y-126428500I444500J0D01*
G01*
X135064500Y-126428500D01*
G75*
G02*
X135509000Y-126873000I0J-444500D01*
G01*
X135509000Y-134112000D01*
G75*
G02*
X135064500Y-134556500I-444500J0D01*
G01*
X134175500Y-134556500D01*
G75*
G02*
X133731000Y-134112000I0J444500D01*
G01*
G37*
G36*
G01*
X131191000Y-134112000D02*
X131191000Y-126873000D01*
G75*
G02*
X131635500Y-126428500I444500J0D01*
G01*
X132524500Y-126428500D01*
G75*
G02*
X132969000Y-126873000I0J-444500D01*
G01*
X132969000Y-134112000D01*
G75*
G02*
X132524500Y-134556500I-444500J0D01*
G01*
X131635500Y-134556500D01*
G75*
G02*
X131191000Y-134112000I0J444500D01*
G01*
G37*
G36*
G01*
X128651000Y-134112000D02*
X128651000Y-126873000D01*
G75*
G02*
X129095500Y-126428500I444500J0D01*
G01*
X129984500Y-126428500D01*
G75*
G02*
X130429000Y-126873000I0J-444500D01*
G01*
X130429000Y-134112000D01*
G75*
G02*
X129984500Y-134556500I-444500J0D01*
G01*
X129095500Y-134556500D01*
G75*
G02*
X128651000Y-134112000I0J444500D01*
G01*
G37*
G36*
G01*
X126111000Y-134112000D02*
X126111000Y-126873000D01*
G75*
G02*
X126555500Y-126428500I444500J0D01*
G01*
X127444500Y-126428500D01*
G75*
G02*
X127889000Y-126873000I0J-444500D01*
G01*
X127889000Y-134112000D01*
G75*
G02*
X127444500Y-134556500I-444500J0D01*
G01*
X126555500Y-134556500D01*
G75*
G02*
X126111000Y-134112000I0J444500D01*
G01*
G37*
G36*
G01*
X123571000Y-134112000D02*
X123571000Y-126873000D01*
G75*
G02*
X124015500Y-126428500I444500J0D01*
G01*
X124904500Y-126428500D01*
G75*
G02*
X125349000Y-126873000I0J-444500D01*
G01*
X125349000Y-134112000D01*
G75*
G02*
X124904500Y-134556500I-444500J0D01*
G01*
X124015500Y-134556500D01*
G75*
G02*
X123571000Y-134112000I0J444500D01*
G01*
G37*
G36*
G01*
X121031000Y-134112000D02*
X121031000Y-126873000D01*
G75*
G02*
X121475500Y-126428500I444500J0D01*
G01*
X122364500Y-126428500D01*
G75*
G02*
X122809000Y-126873000I0J-444500D01*
G01*
X122809000Y-134112000D01*
G75*
G02*
X122364500Y-134556500I-444500J0D01*
G01*
X121475500Y-134556500D01*
G75*
G02*
X121031000Y-134112000I0J444500D01*
G01*
G37*
G36*
G01*
X118491000Y-134112000D02*
X118491000Y-126873000D01*
G75*
G02*
X118935500Y-126428500I444500J0D01*
G01*
X119824500Y-126428500D01*
G75*
G02*
X120269000Y-126873000I0J-444500D01*
G01*
X120269000Y-134112000D01*
G75*
G02*
X119824500Y-134556500I-444500J0D01*
G01*
X118935500Y-134556500D01*
G75*
G02*
X118491000Y-134112000I0J444500D01*
G01*
G37*
G36*
G01*
X115951000Y-134112000D02*
X115951000Y-126873000D01*
G75*
G02*
X116395500Y-126428500I444500J0D01*
G01*
X117284500Y-126428500D01*
G75*
G02*
X117729000Y-126873000I0J-444500D01*
G01*
X117729000Y-134112000D01*
G75*
G02*
X117284500Y-134556500I-444500J0D01*
G01*
X116395500Y-134556500D01*
G75*
G02*
X115951000Y-134112000I0J444500D01*
G01*
G37*
G36*
G01*
X113411000Y-134112000D02*
X113411000Y-126873000D01*
G75*
G02*
X113855500Y-126428500I444500J0D01*
G01*
X114744500Y-126428500D01*
G75*
G02*
X115189000Y-126873000I0J-444500D01*
G01*
X115189000Y-134112000D01*
G75*
G02*
X114744500Y-134556500I-444500J0D01*
G01*
X113855500Y-134556500D01*
G75*
G02*
X113411000Y-134112000I0J444500D01*
G01*
G37*
G36*
G01*
X110871000Y-134112000D02*
X110871000Y-126873000D01*
G75*
G02*
X111315500Y-126428500I444500J0D01*
G01*
X112204500Y-126428500D01*
G75*
G02*
X112649000Y-126873000I0J-444500D01*
G01*
X112649000Y-134112000D01*
G75*
G02*
X112204500Y-134556500I-444500J0D01*
G01*
X111315500Y-134556500D01*
G75*
G02*
X110871000Y-134112000I0J444500D01*
G01*
G37*
G36*
G01*
X108331000Y-134112000D02*
X108331000Y-126873000D01*
G75*
G02*
X108775500Y-126428500I444500J0D01*
G01*
X109664500Y-126428500D01*
G75*
G02*
X110109000Y-126873000I0J-444500D01*
G01*
X110109000Y-134112000D01*
G75*
G02*
X109664500Y-134556500I-444500J0D01*
G01*
X108775500Y-134556500D01*
G75*
G02*
X108331000Y-134112000I0J444500D01*
G01*
G37*
G36*
G01*
X105791000Y-134112000D02*
X105791000Y-126873000D01*
G75*
G02*
X106235500Y-126428500I444500J0D01*
G01*
X107124500Y-126428500D01*
G75*
G02*
X107569000Y-126873000I0J-444500D01*
G01*
X107569000Y-134112000D01*
G75*
G02*
X107124500Y-134556500I-444500J0D01*
G01*
X106235500Y-134556500D01*
G75*
G02*
X105791000Y-134112000I0J444500D01*
G01*
G37*
G36*
G01*
X103251000Y-134112000D02*
X103251000Y-126873000D01*
G75*
G02*
X103695500Y-126428500I444500J0D01*
G01*
X104584500Y-126428500D01*
G75*
G02*
X105029000Y-126873000I0J-444500D01*
G01*
X105029000Y-134112000D01*
G75*
G02*
X104584500Y-134556500I-444500J0D01*
G01*
X103695500Y-134556500D01*
G75*
G02*
X103251000Y-134112000I0J444500D01*
G01*
G37*
%TD*%
D12*
%TO.C,SW4*%
X171450000Y-62230000D03*
X173990000Y-62230000D03*
X176530000Y-62230000D03*
X179070000Y-62230000D03*
X181610000Y-62230000D03*
X181610000Y-69850000D03*
X179070000Y-69850000D03*
X176530000Y-69850000D03*
X173990000Y-69850000D03*
D13*
X171450000Y-69850000D03*
%TD*%
D12*
%TO.C,SW3*%
X156210000Y-62230000D03*
X158750000Y-62230000D03*
X161290000Y-62230000D03*
X163830000Y-62230000D03*
X163830000Y-69850000D03*
X161290000Y-69850000D03*
X158750000Y-69850000D03*
D13*
X156210000Y-69850000D03*
%TD*%
D12*
%TO.C,SW2*%
X146050000Y-62230000D03*
X148590000Y-62230000D03*
X148590000Y-69850000D03*
D13*
X146050000Y-69850000D03*
%TD*%
D12*
%TO.C,SW1*%
X135890000Y-62230000D03*
X138430000Y-62230000D03*
X138430000Y-69850000D03*
D13*
X135890000Y-69850000D03*
%TD*%
D12*
%TO.C,Y1*%
X177800000Y-83919060D03*
X177800000Y-88800940D03*
%TD*%
D13*
%TO.C,U2*%
X114300000Y-72390000D03*
D12*
X114300000Y-74930000D03*
X114300000Y-77470000D03*
X114300000Y-80010000D03*
X114300000Y-82550000D03*
X114300000Y-85090000D03*
X114300000Y-87630000D03*
X114300000Y-90170000D03*
X114300000Y-92710000D03*
X114300000Y-95250000D03*
X114300000Y-97790000D03*
X114300000Y-100330000D03*
X114300000Y-102870000D03*
X114300000Y-105410000D03*
X114300000Y-107950000D03*
X114300000Y-110490000D03*
X129540000Y-110490000D03*
X129540000Y-107950000D03*
X129540000Y-105410000D03*
X129540000Y-102870000D03*
X129540000Y-100330000D03*
X129540000Y-97790000D03*
X129540000Y-95250000D03*
X129540000Y-92710000D03*
X129540000Y-90170000D03*
X129540000Y-87630000D03*
X129540000Y-85090000D03*
X129540000Y-82550000D03*
X129540000Y-80010000D03*
X129540000Y-77470000D03*
X129540000Y-74930000D03*
X129540000Y-72390000D03*
%TD*%
D14*
%TO.C,RN2*%
X151060000Y-74030000D03*
D15*
X150260000Y-74030000D03*
D14*
X148660000Y-74030000D03*
D15*
X149460000Y-74030000D03*
D14*
X151060000Y-75830000D03*
D15*
X149460000Y-75830000D03*
X150260000Y-75830000D03*
D14*
X148660000Y-75830000D03*
%TD*%
D16*
%TO.C,HOLE1*%
X201041000Y-66040000D03*
D17*
X203441000Y-66040000D03*
X202738056Y-67737056D03*
X201041000Y-68440000D03*
X199343944Y-67737056D03*
X198641000Y-66040000D03*
X199343944Y-64342944D03*
X201041000Y-63640000D03*
X202738056Y-64342944D03*
%TD*%
%TO.C,HOLE2*%
X202738056Y-120857944D03*
X201041000Y-120155000D03*
X199343944Y-120857944D03*
X198641000Y-122555000D03*
X199343944Y-124252056D03*
X201041000Y-124955000D03*
X202738056Y-124252056D03*
X203441000Y-122555000D03*
D16*
X201041000Y-122555000D03*
%TD*%
%TO.C,U3*%
G36*
G01*
X132865000Y-92350000D02*
X132565000Y-92350000D01*
G75*
G02*
X132415000Y-92200000I0J150000D01*
G01*
X132415000Y-90750000D01*
G75*
G02*
X132565000Y-90600000I150000J0D01*
G01*
X132865000Y-90600000D01*
G75*
G02*
X133015000Y-90750000I0J-150000D01*
G01*
X133015000Y-92200000D01*
G75*
G02*
X132865000Y-92350000I-150000J0D01*
G01*
G37*
G36*
G01*
X134135000Y-92350000D02*
X133835000Y-92350000D01*
G75*
G02*
X133685000Y-92200000I0J150000D01*
G01*
X133685000Y-90750000D01*
G75*
G02*
X133835000Y-90600000I150000J0D01*
G01*
X134135000Y-90600000D01*
G75*
G02*
X134285000Y-90750000I0J-150000D01*
G01*
X134285000Y-92200000D01*
G75*
G02*
X134135000Y-92350000I-150000J0D01*
G01*
G37*
G36*
G01*
X135405000Y-92350000D02*
X135105000Y-92350000D01*
G75*
G02*
X134955000Y-92200000I0J150000D01*
G01*
X134955000Y-90750000D01*
G75*
G02*
X135105000Y-90600000I150000J0D01*
G01*
X135405000Y-90600000D01*
G75*
G02*
X135555000Y-90750000I0J-150000D01*
G01*
X135555000Y-92200000D01*
G75*
G02*
X135405000Y-92350000I-150000J0D01*
G01*
G37*
G36*
G01*
X136675000Y-92350000D02*
X136375000Y-92350000D01*
G75*
G02*
X136225000Y-92200000I0J150000D01*
G01*
X136225000Y-90750000D01*
G75*
G02*
X136375000Y-90600000I150000J0D01*
G01*
X136675000Y-90600000D01*
G75*
G02*
X136825000Y-90750000I0J-150000D01*
G01*
X136825000Y-92200000D01*
G75*
G02*
X136675000Y-92350000I-150000J0D01*
G01*
G37*
G36*
G01*
X136675000Y-87200000D02*
X136375000Y-87200000D01*
G75*
G02*
X136225000Y-87050000I0J150000D01*
G01*
X136225000Y-85600000D01*
G75*
G02*
X136375000Y-85450000I150000J0D01*
G01*
X136675000Y-85450000D01*
G75*
G02*
X136825000Y-85600000I0J-150000D01*
G01*
X136825000Y-87050000D01*
G75*
G02*
X136675000Y-87200000I-150000J0D01*
G01*
G37*
G36*
G01*
X135405000Y-87200000D02*
X135105000Y-87200000D01*
G75*
G02*
X134955000Y-87050000I0J150000D01*
G01*
X134955000Y-85600000D01*
G75*
G02*
X135105000Y-85450000I150000J0D01*
G01*
X135405000Y-85450000D01*
G75*
G02*
X135555000Y-85600000I0J-150000D01*
G01*
X135555000Y-87050000D01*
G75*
G02*
X135405000Y-87200000I-150000J0D01*
G01*
G37*
G36*
G01*
X134135000Y-87200000D02*
X133835000Y-87200000D01*
G75*
G02*
X133685000Y-87050000I0J150000D01*
G01*
X133685000Y-85600000D01*
G75*
G02*
X133835000Y-85450000I150000J0D01*
G01*
X134135000Y-85450000D01*
G75*
G02*
X134285000Y-85600000I0J-150000D01*
G01*
X134285000Y-87050000D01*
G75*
G02*
X134135000Y-87200000I-150000J0D01*
G01*
G37*
G36*
G01*
X132865000Y-87200000D02*
X132565000Y-87200000D01*
G75*
G02*
X132415000Y-87050000I0J150000D01*
G01*
X132415000Y-85600000D01*
G75*
G02*
X132565000Y-85450000I150000J0D01*
G01*
X132865000Y-85450000D01*
G75*
G02*
X133015000Y-85600000I0J-150000D01*
G01*
X133015000Y-87050000D01*
G75*
G02*
X132865000Y-87200000I-150000J0D01*
G01*
G37*
%TD*%
%TO.C,C1*%
G36*
G01*
X172395000Y-89932500D02*
X172395000Y-90407500D01*
G75*
G02*
X172157500Y-90645000I-237500J0D01*
G01*
X171557500Y-90645000D01*
G75*
G02*
X171320000Y-90407500I0J237500D01*
G01*
X171320000Y-89932500D01*
G75*
G02*
X171557500Y-89695000I237500J0D01*
G01*
X172157500Y-89695000D01*
G75*
G02*
X172395000Y-89932500I0J-237500D01*
G01*
G37*
G36*
G01*
X174120000Y-89932500D02*
X174120000Y-90407500D01*
G75*
G02*
X173882500Y-90645000I-237500J0D01*
G01*
X173282500Y-90645000D01*
G75*
G02*
X173045000Y-90407500I0J237500D01*
G01*
X173045000Y-89932500D01*
G75*
G02*
X173282500Y-89695000I237500J0D01*
G01*
X173882500Y-89695000D01*
G75*
G02*
X174120000Y-89932500I0J-237500D01*
G01*
G37*
%TD*%
%TO.C,C2*%
G36*
G01*
X174120000Y-82312500D02*
X174120000Y-82787500D01*
G75*
G02*
X173882500Y-83025000I-237500J0D01*
G01*
X173282500Y-83025000D01*
G75*
G02*
X173045000Y-82787500I0J237500D01*
G01*
X173045000Y-82312500D01*
G75*
G02*
X173282500Y-82075000I237500J0D01*
G01*
X173882500Y-82075000D01*
G75*
G02*
X174120000Y-82312500I0J-237500D01*
G01*
G37*
G36*
G01*
X172395000Y-82312500D02*
X172395000Y-82787500D01*
G75*
G02*
X172157500Y-83025000I-237500J0D01*
G01*
X171557500Y-83025000D01*
G75*
G02*
X171320000Y-82787500I0J237500D01*
G01*
X171320000Y-82312500D01*
G75*
G02*
X171557500Y-82075000I237500J0D01*
G01*
X172157500Y-82075000D01*
G75*
G02*
X172395000Y-82312500I0J-237500D01*
G01*
G37*
%TD*%
%TO.C,C3*%
G36*
G01*
X182165000Y-94110000D02*
X181690000Y-94110000D01*
G75*
G02*
X181452500Y-93872500I0J237500D01*
G01*
X181452500Y-93272500D01*
G75*
G02*
X181690000Y-93035000I237500J0D01*
G01*
X182165000Y-93035000D01*
G75*
G02*
X182402500Y-93272500I0J-237500D01*
G01*
X182402500Y-93872500D01*
G75*
G02*
X182165000Y-94110000I-237500J0D01*
G01*
G37*
G36*
G01*
X182165000Y-92385000D02*
X181690000Y-92385000D01*
G75*
G02*
X181452500Y-92147500I0J237500D01*
G01*
X181452500Y-91547500D01*
G75*
G02*
X181690000Y-91310000I237500J0D01*
G01*
X182165000Y-91310000D01*
G75*
G02*
X182402500Y-91547500I0J-237500D01*
G01*
X182402500Y-92147500D01*
G75*
G02*
X182165000Y-92385000I-237500J0D01*
G01*
G37*
%TD*%
%TO.C,C4*%
G36*
G01*
X191142500Y-82787500D02*
X191142500Y-82312500D01*
G75*
G02*
X191380000Y-82075000I237500J0D01*
G01*
X191980000Y-82075000D01*
G75*
G02*
X192217500Y-82312500I0J-237500D01*
G01*
X192217500Y-82787500D01*
G75*
G02*
X191980000Y-83025000I-237500J0D01*
G01*
X191380000Y-83025000D01*
G75*
G02*
X191142500Y-82787500I0J237500D01*
G01*
G37*
G36*
G01*
X189417500Y-82787500D02*
X189417500Y-82312500D01*
G75*
G02*
X189655000Y-82075000I237500J0D01*
G01*
X190255000Y-82075000D01*
G75*
G02*
X190492500Y-82312500I0J-237500D01*
G01*
X190492500Y-82787500D01*
G75*
G02*
X190255000Y-83025000I-237500J0D01*
G01*
X189655000Y-83025000D01*
G75*
G02*
X189417500Y-82787500I0J237500D01*
G01*
G37*
%TD*%
%TO.C,C5*%
G36*
G01*
X167315000Y-82312500D02*
X167315000Y-82787500D01*
G75*
G02*
X167077500Y-83025000I-237500J0D01*
G01*
X166477500Y-83025000D01*
G75*
G02*
X166240000Y-82787500I0J237500D01*
G01*
X166240000Y-82312500D01*
G75*
G02*
X166477500Y-82075000I237500J0D01*
G01*
X167077500Y-82075000D01*
G75*
G02*
X167315000Y-82312500I0J-237500D01*
G01*
G37*
G36*
G01*
X169040000Y-82312500D02*
X169040000Y-82787500D01*
G75*
G02*
X168802500Y-83025000I-237500J0D01*
G01*
X168202500Y-83025000D01*
G75*
G02*
X167965000Y-82787500I0J237500D01*
G01*
X167965000Y-82312500D01*
G75*
G02*
X168202500Y-82075000I237500J0D01*
G01*
X168802500Y-82075000D01*
G75*
G02*
X169040000Y-82312500I0J-237500D01*
G01*
G37*
%TD*%
%TO.C,C6*%
G36*
G01*
X143640000Y-110252500D02*
X143640000Y-110727500D01*
G75*
G02*
X143402500Y-110965000I-237500J0D01*
G01*
X142802500Y-110965000D01*
G75*
G02*
X142565000Y-110727500I0J237500D01*
G01*
X142565000Y-110252500D01*
G75*
G02*
X142802500Y-110015000I237500J0D01*
G01*
X143402500Y-110015000D01*
G75*
G02*
X143640000Y-110252500I0J-237500D01*
G01*
G37*
G36*
G01*
X141915000Y-110252500D02*
X141915000Y-110727500D01*
G75*
G02*
X141677500Y-110965000I-237500J0D01*
G01*
X141077500Y-110965000D01*
G75*
G02*
X140840000Y-110727500I0J237500D01*
G01*
X140840000Y-110252500D01*
G75*
G02*
X141077500Y-110015000I237500J0D01*
G01*
X141677500Y-110015000D01*
G75*
G02*
X141915000Y-110252500I0J-237500D01*
G01*
G37*
%TD*%
%TO.C,C7*%
G36*
G01*
X126675000Y-68977500D02*
X126675000Y-69452500D01*
G75*
G02*
X126437500Y-69690000I-237500J0D01*
G01*
X125837500Y-69690000D01*
G75*
G02*
X125600000Y-69452500I0J237500D01*
G01*
X125600000Y-68977500D01*
G75*
G02*
X125837500Y-68740000I237500J0D01*
G01*
X126437500Y-68740000D01*
G75*
G02*
X126675000Y-68977500I0J-237500D01*
G01*
G37*
G36*
G01*
X128400000Y-68977500D02*
X128400000Y-69452500D01*
G75*
G02*
X128162500Y-69690000I-237500J0D01*
G01*
X127562500Y-69690000D01*
G75*
G02*
X127325000Y-69452500I0J237500D01*
G01*
X127325000Y-68977500D01*
G75*
G02*
X127562500Y-68740000I237500J0D01*
G01*
X128162500Y-68740000D01*
G75*
G02*
X128400000Y-68977500I0J-237500D01*
G01*
G37*
%TD*%
%TO.C,C8*%
G36*
G01*
X133220000Y-82787500D02*
X133220000Y-82312500D01*
G75*
G02*
X133457500Y-82075000I237500J0D01*
G01*
X134057500Y-82075000D01*
G75*
G02*
X134295000Y-82312500I0J-237500D01*
G01*
X134295000Y-82787500D01*
G75*
G02*
X134057500Y-83025000I-237500J0D01*
G01*
X133457500Y-83025000D01*
G75*
G02*
X133220000Y-82787500I0J237500D01*
G01*
G37*
G36*
G01*
X134945000Y-82787500D02*
X134945000Y-82312500D01*
G75*
G02*
X135182500Y-82075000I237500J0D01*
G01*
X135782500Y-82075000D01*
G75*
G02*
X136020000Y-82312500I0J-237500D01*
G01*
X136020000Y-82787500D01*
G75*
G02*
X135782500Y-83025000I-237500J0D01*
G01*
X135182500Y-83025000D01*
G75*
G02*
X134945000Y-82787500I0J237500D01*
G01*
G37*
%TD*%
%TO.C,R1*%
G36*
G01*
X185312500Y-82312500D02*
X185312500Y-82787500D01*
G75*
G02*
X185075000Y-83025000I-237500J0D01*
G01*
X184575000Y-83025000D01*
G75*
G02*
X184337500Y-82787500I0J237500D01*
G01*
X184337500Y-82312500D01*
G75*
G02*
X184575000Y-82075000I237500J0D01*
G01*
X185075000Y-82075000D01*
G75*
G02*
X185312500Y-82312500I0J-237500D01*
G01*
G37*
G36*
G01*
X187137500Y-82312500D02*
X187137500Y-82787500D01*
G75*
G02*
X186900000Y-83025000I-237500J0D01*
G01*
X186400000Y-83025000D01*
G75*
G02*
X186162500Y-82787500I0J237500D01*
G01*
X186162500Y-82312500D01*
G75*
G02*
X186400000Y-82075000I237500J0D01*
G01*
X186900000Y-82075000D01*
G75*
G02*
X187137500Y-82312500I0J-237500D01*
G01*
G37*
%TD*%
%TO.C,R2*%
G36*
G01*
X197297500Y-82312500D02*
X197297500Y-82787500D01*
G75*
G02*
X197060000Y-83025000I-237500J0D01*
G01*
X196560000Y-83025000D01*
G75*
G02*
X196322500Y-82787500I0J237500D01*
G01*
X196322500Y-82312500D01*
G75*
G02*
X196560000Y-82075000I237500J0D01*
G01*
X197060000Y-82075000D01*
G75*
G02*
X197297500Y-82312500I0J-237500D01*
G01*
G37*
G36*
G01*
X195472500Y-82312500D02*
X195472500Y-82787500D01*
G75*
G02*
X195235000Y-83025000I-237500J0D01*
G01*
X194735000Y-83025000D01*
G75*
G02*
X194497500Y-82787500I0J237500D01*
G01*
X194497500Y-82312500D01*
G75*
G02*
X194735000Y-82075000I237500J0D01*
G01*
X195235000Y-82075000D01*
G75*
G02*
X195472500Y-82312500I0J-237500D01*
G01*
G37*
%TD*%
%TO.C,R3*%
G36*
G01*
X200552500Y-82312500D02*
X200552500Y-82787500D01*
G75*
G02*
X200315000Y-83025000I-237500J0D01*
G01*
X199815000Y-83025000D01*
G75*
G02*
X199577500Y-82787500I0J237500D01*
G01*
X199577500Y-82312500D01*
G75*
G02*
X199815000Y-82075000I237500J0D01*
G01*
X200315000Y-82075000D01*
G75*
G02*
X200552500Y-82312500I0J-237500D01*
G01*
G37*
G36*
G01*
X202377500Y-82312500D02*
X202377500Y-82787500D01*
G75*
G02*
X202140000Y-83025000I-237500J0D01*
G01*
X201640000Y-83025000D01*
G75*
G02*
X201402500Y-82787500I0J237500D01*
G01*
X201402500Y-82312500D01*
G75*
G02*
X201640000Y-82075000I237500J0D01*
G01*
X202140000Y-82075000D01*
G75*
G02*
X202377500Y-82312500I0J-237500D01*
G01*
G37*
%TD*%
%TO.C,R6*%
G36*
G01*
X135760000Y-103107500D02*
X135760000Y-102632500D01*
G75*
G02*
X135997500Y-102395000I237500J0D01*
G01*
X136497500Y-102395000D01*
G75*
G02*
X136735000Y-102632500I0J-237500D01*
G01*
X136735000Y-103107500D01*
G75*
G02*
X136497500Y-103345000I-237500J0D01*
G01*
X135997500Y-103345000D01*
G75*
G02*
X135760000Y-103107500I0J237500D01*
G01*
G37*
G36*
G01*
X137585000Y-103107500D02*
X137585000Y-102632500D01*
G75*
G02*
X137822500Y-102395000I237500J0D01*
G01*
X138322500Y-102395000D01*
G75*
G02*
X138560000Y-102632500I0J-237500D01*
G01*
X138560000Y-103107500D01*
G75*
G02*
X138322500Y-103345000I-237500J0D01*
G01*
X137822500Y-103345000D01*
G75*
G02*
X137585000Y-103107500I0J237500D01*
G01*
G37*
%TD*%
%TO.C,R7*%
G36*
G01*
X172295000Y-86122500D02*
X172295000Y-86597500D01*
G75*
G02*
X172057500Y-86835000I-237500J0D01*
G01*
X171557500Y-86835000D01*
G75*
G02*
X171320000Y-86597500I0J237500D01*
G01*
X171320000Y-86122500D01*
G75*
G02*
X171557500Y-85885000I237500J0D01*
G01*
X172057500Y-85885000D01*
G75*
G02*
X172295000Y-86122500I0J-237500D01*
G01*
G37*
G36*
G01*
X174120000Y-86122500D02*
X174120000Y-86597500D01*
G75*
G02*
X173882500Y-86835000I-237500J0D01*
G01*
X173382500Y-86835000D01*
G75*
G02*
X173145000Y-86597500I0J237500D01*
G01*
X173145000Y-86122500D01*
G75*
G02*
X173382500Y-85885000I237500J0D01*
G01*
X173882500Y-85885000D01*
G75*
G02*
X174120000Y-86122500I0J-237500D01*
G01*
G37*
%TD*%
D14*
%TO.C,RN1*%
X141040000Y-75830000D03*
D15*
X142640000Y-75830000D03*
X141840000Y-75830000D03*
D14*
X143440000Y-75830000D03*
D15*
X141840000Y-74030000D03*
D14*
X141040000Y-74030000D03*
D15*
X142640000Y-74030000D03*
D14*
X143440000Y-74030000D03*
%TD*%
%TO.C,RN3*%
X163900000Y-75830000D03*
D15*
X165500000Y-75830000D03*
X164700000Y-75830000D03*
D14*
X166300000Y-75830000D03*
D15*
X164700000Y-74030000D03*
D14*
X163900000Y-74030000D03*
D15*
X165500000Y-74030000D03*
D14*
X166300000Y-74030000D03*
%TD*%
%TO.C,U1*%
G36*
G01*
X145615000Y-106770000D02*
X145415000Y-106770000D01*
G75*
G02*
X145315000Y-106670000I0J100000D01*
G01*
X145315000Y-104370000D01*
G75*
G02*
X145415000Y-104270000I100000J0D01*
G01*
X145615000Y-104270000D01*
G75*
G02*
X145715000Y-104370000I0J-100000D01*
G01*
X145715000Y-106670000D01*
G75*
G02*
X145615000Y-106770000I-100000J0D01*
G01*
G37*
G36*
G01*
X146265000Y-106770000D02*
X146065000Y-106770000D01*
G75*
G02*
X145965000Y-106670000I0J100000D01*
G01*
X145965000Y-104370000D01*
G75*
G02*
X146065000Y-104270000I100000J0D01*
G01*
X146265000Y-104270000D01*
G75*
G02*
X146365000Y-104370000I0J-100000D01*
G01*
X146365000Y-106670000D01*
G75*
G02*
X146265000Y-106770000I-100000J0D01*
G01*
G37*
G36*
G01*
X146915000Y-106770000D02*
X146715000Y-106770000D01*
G75*
G02*
X146615000Y-106670000I0J100000D01*
G01*
X146615000Y-104370000D01*
G75*
G02*
X146715000Y-104270000I100000J0D01*
G01*
X146915000Y-104270000D01*
G75*
G02*
X147015000Y-104370000I0J-100000D01*
G01*
X147015000Y-106670000D01*
G75*
G02*
X146915000Y-106770000I-100000J0D01*
G01*
G37*
G36*
G01*
X147565000Y-106770000D02*
X147365000Y-106770000D01*
G75*
G02*
X147265000Y-106670000I0J100000D01*
G01*
X147265000Y-104370000D01*
G75*
G02*
X147365000Y-104270000I100000J0D01*
G01*
X147565000Y-104270000D01*
G75*
G02*
X147665000Y-104370000I0J-100000D01*
G01*
X147665000Y-106670000D01*
G75*
G02*
X147565000Y-106770000I-100000J0D01*
G01*
G37*
G36*
G01*
X148190000Y-106770000D02*
X147990000Y-106770000D01*
G75*
G02*
X147890000Y-106670000I0J100000D01*
G01*
X147890000Y-104370000D01*
G75*
G02*
X147990000Y-104270000I100000J0D01*
G01*
X148190000Y-104270000D01*
G75*
G02*
X148290000Y-104370000I0J-100000D01*
G01*
X148290000Y-106670000D01*
G75*
G02*
X148190000Y-106770000I-100000J0D01*
G01*
G37*
G36*
G01*
X148840000Y-106770000D02*
X148640000Y-106770000D01*
G75*
G02*
X148540000Y-106670000I0J100000D01*
G01*
X148540000Y-104370000D01*
G75*
G02*
X148640000Y-104270000I100000J0D01*
G01*
X148840000Y-104270000D01*
G75*
G02*
X148940000Y-104370000I0J-100000D01*
G01*
X148940000Y-106670000D01*
G75*
G02*
X148840000Y-106770000I-100000J0D01*
G01*
G37*
G36*
G01*
X149490000Y-106770000D02*
X149290000Y-106770000D01*
G75*
G02*
X149190000Y-106670000I0J100000D01*
G01*
X149190000Y-104370000D01*
G75*
G02*
X149290000Y-104270000I100000J0D01*
G01*
X149490000Y-104270000D01*
G75*
G02*
X149590000Y-104370000I0J-100000D01*
G01*
X149590000Y-106670000D01*
G75*
G02*
X149490000Y-106770000I-100000J0D01*
G01*
G37*
G36*
G01*
X150140000Y-106770000D02*
X149940000Y-106770000D01*
G75*
G02*
X149840000Y-106670000I0J100000D01*
G01*
X149840000Y-104370000D01*
G75*
G02*
X149940000Y-104270000I100000J0D01*
G01*
X150140000Y-104270000D01*
G75*
G02*
X150240000Y-104370000I0J-100000D01*
G01*
X150240000Y-106670000D01*
G75*
G02*
X150140000Y-106770000I-100000J0D01*
G01*
G37*
G36*
G01*
X150790000Y-106770000D02*
X150590000Y-106770000D01*
G75*
G02*
X150490000Y-106670000I0J100000D01*
G01*
X150490000Y-104370000D01*
G75*
G02*
X150590000Y-104270000I100000J0D01*
G01*
X150790000Y-104270000D01*
G75*
G02*
X150890000Y-104370000I0J-100000D01*
G01*
X150890000Y-106670000D01*
G75*
G02*
X150790000Y-106770000I-100000J0D01*
G01*
G37*
G36*
G01*
X151440000Y-106770000D02*
X151240000Y-106770000D01*
G75*
G02*
X151140000Y-106670000I0J100000D01*
G01*
X151140000Y-104370000D01*
G75*
G02*
X151240000Y-104270000I100000J0D01*
G01*
X151440000Y-104270000D01*
G75*
G02*
X151540000Y-104370000I0J-100000D01*
G01*
X151540000Y-106670000D01*
G75*
G02*
X151440000Y-106770000I-100000J0D01*
G01*
G37*
G36*
G01*
X152090000Y-106770000D02*
X151890000Y-106770000D01*
G75*
G02*
X151790000Y-106670000I0J100000D01*
G01*
X151790000Y-104370000D01*
G75*
G02*
X151890000Y-104270000I100000J0D01*
G01*
X152090000Y-104270000D01*
G75*
G02*
X152190000Y-104370000I0J-100000D01*
G01*
X152190000Y-106670000D01*
G75*
G02*
X152090000Y-106770000I-100000J0D01*
G01*
G37*
G36*
G01*
X152740000Y-106770000D02*
X152540000Y-106770000D01*
G75*
G02*
X152440000Y-106670000I0J100000D01*
G01*
X152440000Y-104370000D01*
G75*
G02*
X152540000Y-104270000I100000J0D01*
G01*
X152740000Y-104270000D01*
G75*
G02*
X152840000Y-104370000I0J-100000D01*
G01*
X152840000Y-106670000D01*
G75*
G02*
X152740000Y-106770000I-100000J0D01*
G01*
G37*
G36*
G01*
X153390000Y-106770000D02*
X153190000Y-106770000D01*
G75*
G02*
X153090000Y-106670000I0J100000D01*
G01*
X153090000Y-104370000D01*
G75*
G02*
X153190000Y-104270000I100000J0D01*
G01*
X153390000Y-104270000D01*
G75*
G02*
X153490000Y-104370000I0J-100000D01*
G01*
X153490000Y-106670000D01*
G75*
G02*
X153390000Y-106770000I-100000J0D01*
G01*
G37*
G36*
G01*
X154040000Y-106770000D02*
X153840000Y-106770000D01*
G75*
G02*
X153740000Y-106670000I0J100000D01*
G01*
X153740000Y-104370000D01*
G75*
G02*
X153840000Y-104270000I100000J0D01*
G01*
X154040000Y-104270000D01*
G75*
G02*
X154140000Y-104370000I0J-100000D01*
G01*
X154140000Y-106670000D01*
G75*
G02*
X154040000Y-106770000I-100000J0D01*
G01*
G37*
G36*
G01*
X154690000Y-106770000D02*
X154490000Y-106770000D01*
G75*
G02*
X154390000Y-106670000I0J100000D01*
G01*
X154390000Y-104370000D01*
G75*
G02*
X154490000Y-104270000I100000J0D01*
G01*
X154690000Y-104270000D01*
G75*
G02*
X154790000Y-104370000I0J-100000D01*
G01*
X154790000Y-106670000D01*
G75*
G02*
X154690000Y-106770000I-100000J0D01*
G01*
G37*
G36*
G01*
X155340000Y-106770000D02*
X155140000Y-106770000D01*
G75*
G02*
X155040000Y-106670000I0J100000D01*
G01*
X155040000Y-104370000D01*
G75*
G02*
X155140000Y-104270000I100000J0D01*
G01*
X155340000Y-104270000D01*
G75*
G02*
X155440000Y-104370000I0J-100000D01*
G01*
X155440000Y-106670000D01*
G75*
G02*
X155340000Y-106770000I-100000J0D01*
G01*
G37*
G36*
G01*
X155990000Y-106770000D02*
X155790000Y-106770000D01*
G75*
G02*
X155690000Y-106670000I0J100000D01*
G01*
X155690000Y-104370000D01*
G75*
G02*
X155790000Y-104270000I100000J0D01*
G01*
X155990000Y-104270000D01*
G75*
G02*
X156090000Y-104370000I0J-100000D01*
G01*
X156090000Y-106670000D01*
G75*
G02*
X155990000Y-106770000I-100000J0D01*
G01*
G37*
G36*
G01*
X156640000Y-106770000D02*
X156440000Y-106770000D01*
G75*
G02*
X156340000Y-106670000I0J100000D01*
G01*
X156340000Y-104370000D01*
G75*
G02*
X156440000Y-104270000I100000J0D01*
G01*
X156640000Y-104270000D01*
G75*
G02*
X156740000Y-104370000I0J-100000D01*
G01*
X156740000Y-106670000D01*
G75*
G02*
X156640000Y-106770000I-100000J0D01*
G01*
G37*
G36*
G01*
X157290000Y-106770000D02*
X157090000Y-106770000D01*
G75*
G02*
X156990000Y-106670000I0J100000D01*
G01*
X156990000Y-104370000D01*
G75*
G02*
X157090000Y-104270000I100000J0D01*
G01*
X157290000Y-104270000D01*
G75*
G02*
X157390000Y-104370000I0J-100000D01*
G01*
X157390000Y-106670000D01*
G75*
G02*
X157290000Y-106770000I-100000J0D01*
G01*
G37*
G36*
G01*
X157940000Y-106770000D02*
X157740000Y-106770000D01*
G75*
G02*
X157640000Y-106670000I0J100000D01*
G01*
X157640000Y-104370000D01*
G75*
G02*
X157740000Y-104270000I100000J0D01*
G01*
X157940000Y-104270000D01*
G75*
G02*
X158040000Y-104370000I0J-100000D01*
G01*
X158040000Y-106670000D01*
G75*
G02*
X157940000Y-106770000I-100000J0D01*
G01*
G37*
G36*
G01*
X158590000Y-106770000D02*
X158390000Y-106770000D01*
G75*
G02*
X158290000Y-106670000I0J100000D01*
G01*
X158290000Y-104370000D01*
G75*
G02*
X158390000Y-104270000I100000J0D01*
G01*
X158590000Y-104270000D01*
G75*
G02*
X158690000Y-104370000I0J-100000D01*
G01*
X158690000Y-106670000D01*
G75*
G02*
X158590000Y-106770000I-100000J0D01*
G01*
G37*
G36*
G01*
X159240000Y-106770000D02*
X159040000Y-106770000D01*
G75*
G02*
X158940000Y-106670000I0J100000D01*
G01*
X158940000Y-104370000D01*
G75*
G02*
X159040000Y-104270000I100000J0D01*
G01*
X159240000Y-104270000D01*
G75*
G02*
X159340000Y-104370000I0J-100000D01*
G01*
X159340000Y-106670000D01*
G75*
G02*
X159240000Y-106770000I-100000J0D01*
G01*
G37*
G36*
G01*
X159890000Y-106770000D02*
X159690000Y-106770000D01*
G75*
G02*
X159590000Y-106670000I0J100000D01*
G01*
X159590000Y-104370000D01*
G75*
G02*
X159690000Y-104270000I100000J0D01*
G01*
X159890000Y-104270000D01*
G75*
G02*
X159990000Y-104370000I0J-100000D01*
G01*
X159990000Y-106670000D01*
G75*
G02*
X159890000Y-106770000I-100000J0D01*
G01*
G37*
G36*
G01*
X160540000Y-106770000D02*
X160340000Y-106770000D01*
G75*
G02*
X160240000Y-106670000I0J100000D01*
G01*
X160240000Y-104370000D01*
G75*
G02*
X160340000Y-104270000I100000J0D01*
G01*
X160540000Y-104270000D01*
G75*
G02*
X160640000Y-104370000I0J-100000D01*
G01*
X160640000Y-106670000D01*
G75*
G02*
X160540000Y-106770000I-100000J0D01*
G01*
G37*
G36*
G01*
X161190000Y-106770000D02*
X160990000Y-106770000D01*
G75*
G02*
X160890000Y-106670000I0J100000D01*
G01*
X160890000Y-104370000D01*
G75*
G02*
X160990000Y-104270000I100000J0D01*
G01*
X161190000Y-104270000D01*
G75*
G02*
X161290000Y-104370000I0J-100000D01*
G01*
X161290000Y-106670000D01*
G75*
G02*
X161190000Y-106770000I-100000J0D01*
G01*
G37*
G36*
G01*
X161840000Y-106770000D02*
X161640000Y-106770000D01*
G75*
G02*
X161540000Y-106670000I0J100000D01*
G01*
X161540000Y-104370000D01*
G75*
G02*
X161640000Y-104270000I100000J0D01*
G01*
X161840000Y-104270000D01*
G75*
G02*
X161940000Y-104370000I0J-100000D01*
G01*
X161940000Y-106670000D01*
G75*
G02*
X161840000Y-106770000I-100000J0D01*
G01*
G37*
G36*
G01*
X162490000Y-106770000D02*
X162290000Y-106770000D01*
G75*
G02*
X162190000Y-106670000I0J100000D01*
G01*
X162190000Y-104370000D01*
G75*
G02*
X162290000Y-104270000I100000J0D01*
G01*
X162490000Y-104270000D01*
G75*
G02*
X162590000Y-104370000I0J-100000D01*
G01*
X162590000Y-106670000D01*
G75*
G02*
X162490000Y-106770000I-100000J0D01*
G01*
G37*
G36*
G01*
X163140000Y-106770000D02*
X162940000Y-106770000D01*
G75*
G02*
X162840000Y-106670000I0J100000D01*
G01*
X162840000Y-104370000D01*
G75*
G02*
X162940000Y-104270000I100000J0D01*
G01*
X163140000Y-104270000D01*
G75*
G02*
X163240000Y-104370000I0J-100000D01*
G01*
X163240000Y-106670000D01*
G75*
G02*
X163140000Y-106770000I-100000J0D01*
G01*
G37*
G36*
G01*
X163790000Y-106770000D02*
X163590000Y-106770000D01*
G75*
G02*
X163490000Y-106670000I0J100000D01*
G01*
X163490000Y-104370000D01*
G75*
G02*
X163590000Y-104270000I100000J0D01*
G01*
X163790000Y-104270000D01*
G75*
G02*
X163890000Y-104370000I0J-100000D01*
G01*
X163890000Y-106670000D01*
G75*
G02*
X163790000Y-106770000I-100000J0D01*
G01*
G37*
G36*
G01*
X164440000Y-106770000D02*
X164240000Y-106770000D01*
G75*
G02*
X164140000Y-106670000I0J100000D01*
G01*
X164140000Y-104370000D01*
G75*
G02*
X164240000Y-104270000I100000J0D01*
G01*
X164440000Y-104270000D01*
G75*
G02*
X164540000Y-104370000I0J-100000D01*
G01*
X164540000Y-106670000D01*
G75*
G02*
X164440000Y-106770000I-100000J0D01*
G01*
G37*
G36*
G01*
X168190000Y-102595000D02*
X168190000Y-102795000D01*
G75*
G02*
X168090000Y-102895000I-100000J0D01*
G01*
X165790000Y-102895000D01*
G75*
G02*
X165690000Y-102795000I0J100000D01*
G01*
X165690000Y-102595000D01*
G75*
G02*
X165790000Y-102495000I100000J0D01*
G01*
X168090000Y-102495000D01*
G75*
G02*
X168190000Y-102595000I0J-100000D01*
G01*
G37*
G36*
G01*
X168190000Y-101945000D02*
X168190000Y-102145000D01*
G75*
G02*
X168090000Y-102245000I-100000J0D01*
G01*
X165790000Y-102245000D01*
G75*
G02*
X165690000Y-102145000I0J100000D01*
G01*
X165690000Y-101945000D01*
G75*
G02*
X165790000Y-101845000I100000J0D01*
G01*
X168090000Y-101845000D01*
G75*
G02*
X168190000Y-101945000I0J-100000D01*
G01*
G37*
G36*
G01*
X168190000Y-101295000D02*
X168190000Y-101495000D01*
G75*
G02*
X168090000Y-101595000I-100000J0D01*
G01*
X165790000Y-101595000D01*
G75*
G02*
X165690000Y-101495000I0J100000D01*
G01*
X165690000Y-101295000D01*
G75*
G02*
X165790000Y-101195000I100000J0D01*
G01*
X168090000Y-101195000D01*
G75*
G02*
X168190000Y-101295000I0J-100000D01*
G01*
G37*
G36*
G01*
X168190000Y-100645000D02*
X168190000Y-100845000D01*
G75*
G02*
X168090000Y-100945000I-100000J0D01*
G01*
X165790000Y-100945000D01*
G75*
G02*
X165690000Y-100845000I0J100000D01*
G01*
X165690000Y-100645000D01*
G75*
G02*
X165790000Y-100545000I100000J0D01*
G01*
X168090000Y-100545000D01*
G75*
G02*
X168190000Y-100645000I0J-100000D01*
G01*
G37*
G36*
G01*
X168190000Y-99995000D02*
X168190000Y-100195000D01*
G75*
G02*
X168090000Y-100295000I-100000J0D01*
G01*
X165790000Y-100295000D01*
G75*
G02*
X165690000Y-100195000I0J100000D01*
G01*
X165690000Y-99995000D01*
G75*
G02*
X165790000Y-99895000I100000J0D01*
G01*
X168090000Y-99895000D01*
G75*
G02*
X168190000Y-99995000I0J-100000D01*
G01*
G37*
G36*
G01*
X168190000Y-99345000D02*
X168190000Y-99545000D01*
G75*
G02*
X168090000Y-99645000I-100000J0D01*
G01*
X165790000Y-99645000D01*
G75*
G02*
X165690000Y-99545000I0J100000D01*
G01*
X165690000Y-99345000D01*
G75*
G02*
X165790000Y-99245000I100000J0D01*
G01*
X168090000Y-99245000D01*
G75*
G02*
X168190000Y-99345000I0J-100000D01*
G01*
G37*
G36*
G01*
X168190000Y-98695000D02*
X168190000Y-98895000D01*
G75*
G02*
X168090000Y-98995000I-100000J0D01*
G01*
X165790000Y-98995000D01*
G75*
G02*
X165690000Y-98895000I0J100000D01*
G01*
X165690000Y-98695000D01*
G75*
G02*
X165790000Y-98595000I100000J0D01*
G01*
X168090000Y-98595000D01*
G75*
G02*
X168190000Y-98695000I0J-100000D01*
G01*
G37*
G36*
G01*
X168190000Y-98045000D02*
X168190000Y-98245000D01*
G75*
G02*
X168090000Y-98345000I-100000J0D01*
G01*
X165790000Y-98345000D01*
G75*
G02*
X165690000Y-98245000I0J100000D01*
G01*
X165690000Y-98045000D01*
G75*
G02*
X165790000Y-97945000I100000J0D01*
G01*
X168090000Y-97945000D01*
G75*
G02*
X168190000Y-98045000I0J-100000D01*
G01*
G37*
G36*
G01*
X168190000Y-97395000D02*
X168190000Y-97595000D01*
G75*
G02*
X168090000Y-97695000I-100000J0D01*
G01*
X165790000Y-97695000D01*
G75*
G02*
X165690000Y-97595000I0J100000D01*
G01*
X165690000Y-97395000D01*
G75*
G02*
X165790000Y-97295000I100000J0D01*
G01*
X168090000Y-97295000D01*
G75*
G02*
X168190000Y-97395000I0J-100000D01*
G01*
G37*
G36*
G01*
X168190000Y-96745000D02*
X168190000Y-96945000D01*
G75*
G02*
X168090000Y-97045000I-100000J0D01*
G01*
X165790000Y-97045000D01*
G75*
G02*
X165690000Y-96945000I0J100000D01*
G01*
X165690000Y-96745000D01*
G75*
G02*
X165790000Y-96645000I100000J0D01*
G01*
X168090000Y-96645000D01*
G75*
G02*
X168190000Y-96745000I0J-100000D01*
G01*
G37*
G36*
G01*
X168190000Y-96095000D02*
X168190000Y-96295000D01*
G75*
G02*
X168090000Y-96395000I-100000J0D01*
G01*
X165790000Y-96395000D01*
G75*
G02*
X165690000Y-96295000I0J100000D01*
G01*
X165690000Y-96095000D01*
G75*
G02*
X165790000Y-95995000I100000J0D01*
G01*
X168090000Y-95995000D01*
G75*
G02*
X168190000Y-96095000I0J-100000D01*
G01*
G37*
G36*
G01*
X168190000Y-95445000D02*
X168190000Y-95645000D01*
G75*
G02*
X168090000Y-95745000I-100000J0D01*
G01*
X165790000Y-95745000D01*
G75*
G02*
X165690000Y-95645000I0J100000D01*
G01*
X165690000Y-95445000D01*
G75*
G02*
X165790000Y-95345000I100000J0D01*
G01*
X168090000Y-95345000D01*
G75*
G02*
X168190000Y-95445000I0J-100000D01*
G01*
G37*
G36*
G01*
X168190000Y-94795000D02*
X168190000Y-94995000D01*
G75*
G02*
X168090000Y-95095000I-100000J0D01*
G01*
X165790000Y-95095000D01*
G75*
G02*
X165690000Y-94995000I0J100000D01*
G01*
X165690000Y-94795000D01*
G75*
G02*
X165790000Y-94695000I100000J0D01*
G01*
X168090000Y-94695000D01*
G75*
G02*
X168190000Y-94795000I0J-100000D01*
G01*
G37*
G36*
G01*
X168190000Y-94145000D02*
X168190000Y-94345000D01*
G75*
G02*
X168090000Y-94445000I-100000J0D01*
G01*
X165790000Y-94445000D01*
G75*
G02*
X165690000Y-94345000I0J100000D01*
G01*
X165690000Y-94145000D01*
G75*
G02*
X165790000Y-94045000I100000J0D01*
G01*
X168090000Y-94045000D01*
G75*
G02*
X168190000Y-94145000I0J-100000D01*
G01*
G37*
G36*
G01*
X168190000Y-93495000D02*
X168190000Y-93695000D01*
G75*
G02*
X168090000Y-93795000I-100000J0D01*
G01*
X165790000Y-93795000D01*
G75*
G02*
X165690000Y-93695000I0J100000D01*
G01*
X165690000Y-93495000D01*
G75*
G02*
X165790000Y-93395000I100000J0D01*
G01*
X168090000Y-93395000D01*
G75*
G02*
X168190000Y-93495000I0J-100000D01*
G01*
G37*
G36*
G01*
X168190000Y-92845000D02*
X168190000Y-93045000D01*
G75*
G02*
X168090000Y-93145000I-100000J0D01*
G01*
X165790000Y-93145000D01*
G75*
G02*
X165690000Y-93045000I0J100000D01*
G01*
X165690000Y-92845000D01*
G75*
G02*
X165790000Y-92745000I100000J0D01*
G01*
X168090000Y-92745000D01*
G75*
G02*
X168190000Y-92845000I0J-100000D01*
G01*
G37*
G36*
G01*
X168190000Y-92195000D02*
X168190000Y-92395000D01*
G75*
G02*
X168090000Y-92495000I-100000J0D01*
G01*
X165790000Y-92495000D01*
G75*
G02*
X165690000Y-92395000I0J100000D01*
G01*
X165690000Y-92195000D01*
G75*
G02*
X165790000Y-92095000I100000J0D01*
G01*
X168090000Y-92095000D01*
G75*
G02*
X168190000Y-92195000I0J-100000D01*
G01*
G37*
G36*
G01*
X168190000Y-91545000D02*
X168190000Y-91745000D01*
G75*
G02*
X168090000Y-91845000I-100000J0D01*
G01*
X165790000Y-91845000D01*
G75*
G02*
X165690000Y-91745000I0J100000D01*
G01*
X165690000Y-91545000D01*
G75*
G02*
X165790000Y-91445000I100000J0D01*
G01*
X168090000Y-91445000D01*
G75*
G02*
X168190000Y-91545000I0J-100000D01*
G01*
G37*
G36*
G01*
X168190000Y-90895000D02*
X168190000Y-91095000D01*
G75*
G02*
X168090000Y-91195000I-100000J0D01*
G01*
X165790000Y-91195000D01*
G75*
G02*
X165690000Y-91095000I0J100000D01*
G01*
X165690000Y-90895000D01*
G75*
G02*
X165790000Y-90795000I100000J0D01*
G01*
X168090000Y-90795000D01*
G75*
G02*
X168190000Y-90895000I0J-100000D01*
G01*
G37*
G36*
G01*
X168190000Y-90245000D02*
X168190000Y-90445000D01*
G75*
G02*
X168090000Y-90545000I-100000J0D01*
G01*
X165790000Y-90545000D01*
G75*
G02*
X165690000Y-90445000I0J100000D01*
G01*
X165690000Y-90245000D01*
G75*
G02*
X165790000Y-90145000I100000J0D01*
G01*
X168090000Y-90145000D01*
G75*
G02*
X168190000Y-90245000I0J-100000D01*
G01*
G37*
G36*
G01*
X164465000Y-88770000D02*
X164265000Y-88770000D01*
G75*
G02*
X164165000Y-88670000I0J100000D01*
G01*
X164165000Y-86370000D01*
G75*
G02*
X164265000Y-86270000I100000J0D01*
G01*
X164465000Y-86270000D01*
G75*
G02*
X164565000Y-86370000I0J-100000D01*
G01*
X164565000Y-88670000D01*
G75*
G02*
X164465000Y-88770000I-100000J0D01*
G01*
G37*
G36*
G01*
X163815000Y-88770000D02*
X163615000Y-88770000D01*
G75*
G02*
X163515000Y-88670000I0J100000D01*
G01*
X163515000Y-86370000D01*
G75*
G02*
X163615000Y-86270000I100000J0D01*
G01*
X163815000Y-86270000D01*
G75*
G02*
X163915000Y-86370000I0J-100000D01*
G01*
X163915000Y-88670000D01*
G75*
G02*
X163815000Y-88770000I-100000J0D01*
G01*
G37*
G36*
G01*
X163165000Y-88770000D02*
X162965000Y-88770000D01*
G75*
G02*
X162865000Y-88670000I0J100000D01*
G01*
X162865000Y-86370000D01*
G75*
G02*
X162965000Y-86270000I100000J0D01*
G01*
X163165000Y-86270000D01*
G75*
G02*
X163265000Y-86370000I0J-100000D01*
G01*
X163265000Y-88670000D01*
G75*
G02*
X163165000Y-88770000I-100000J0D01*
G01*
G37*
G36*
G01*
X162515000Y-88770000D02*
X162315000Y-88770000D01*
G75*
G02*
X162215000Y-88670000I0J100000D01*
G01*
X162215000Y-86370000D01*
G75*
G02*
X162315000Y-86270000I100000J0D01*
G01*
X162515000Y-86270000D01*
G75*
G02*
X162615000Y-86370000I0J-100000D01*
G01*
X162615000Y-88670000D01*
G75*
G02*
X162515000Y-88770000I-100000J0D01*
G01*
G37*
G36*
G01*
X161865000Y-88770000D02*
X161665000Y-88770000D01*
G75*
G02*
X161565000Y-88670000I0J100000D01*
G01*
X161565000Y-86370000D01*
G75*
G02*
X161665000Y-86270000I100000J0D01*
G01*
X161865000Y-86270000D01*
G75*
G02*
X161965000Y-86370000I0J-100000D01*
G01*
X161965000Y-88670000D01*
G75*
G02*
X161865000Y-88770000I-100000J0D01*
G01*
G37*
G36*
G01*
X161215000Y-88770000D02*
X161015000Y-88770000D01*
G75*
G02*
X160915000Y-88670000I0J100000D01*
G01*
X160915000Y-86370000D01*
G75*
G02*
X161015000Y-86270000I100000J0D01*
G01*
X161215000Y-86270000D01*
G75*
G02*
X161315000Y-86370000I0J-100000D01*
G01*
X161315000Y-88670000D01*
G75*
G02*
X161215000Y-88770000I-100000J0D01*
G01*
G37*
G36*
G01*
X160565000Y-88770000D02*
X160365000Y-88770000D01*
G75*
G02*
X160265000Y-88670000I0J100000D01*
G01*
X160265000Y-86370000D01*
G75*
G02*
X160365000Y-86270000I100000J0D01*
G01*
X160565000Y-86270000D01*
G75*
G02*
X160665000Y-86370000I0J-100000D01*
G01*
X160665000Y-88670000D01*
G75*
G02*
X160565000Y-88770000I-100000J0D01*
G01*
G37*
G36*
G01*
X159915000Y-88770000D02*
X159715000Y-88770000D01*
G75*
G02*
X159615000Y-88670000I0J100000D01*
G01*
X159615000Y-86370000D01*
G75*
G02*
X159715000Y-86270000I100000J0D01*
G01*
X159915000Y-86270000D01*
G75*
G02*
X160015000Y-86370000I0J-100000D01*
G01*
X160015000Y-88670000D01*
G75*
G02*
X159915000Y-88770000I-100000J0D01*
G01*
G37*
G36*
G01*
X159265000Y-88770000D02*
X159065000Y-88770000D01*
G75*
G02*
X158965000Y-88670000I0J100000D01*
G01*
X158965000Y-86370000D01*
G75*
G02*
X159065000Y-86270000I100000J0D01*
G01*
X159265000Y-86270000D01*
G75*
G02*
X159365000Y-86370000I0J-100000D01*
G01*
X159365000Y-88670000D01*
G75*
G02*
X159265000Y-88770000I-100000J0D01*
G01*
G37*
G36*
G01*
X158615000Y-88770000D02*
X158415000Y-88770000D01*
G75*
G02*
X158315000Y-88670000I0J100000D01*
G01*
X158315000Y-86370000D01*
G75*
G02*
X158415000Y-86270000I100000J0D01*
G01*
X158615000Y-86270000D01*
G75*
G02*
X158715000Y-86370000I0J-100000D01*
G01*
X158715000Y-88670000D01*
G75*
G02*
X158615000Y-88770000I-100000J0D01*
G01*
G37*
G36*
G01*
X157965000Y-88770000D02*
X157765000Y-88770000D01*
G75*
G02*
X157665000Y-88670000I0J100000D01*
G01*
X157665000Y-86370000D01*
G75*
G02*
X157765000Y-86270000I100000J0D01*
G01*
X157965000Y-86270000D01*
G75*
G02*
X158065000Y-86370000I0J-100000D01*
G01*
X158065000Y-88670000D01*
G75*
G02*
X157965000Y-88770000I-100000J0D01*
G01*
G37*
G36*
G01*
X157315000Y-88770000D02*
X157115000Y-88770000D01*
G75*
G02*
X157015000Y-88670000I0J100000D01*
G01*
X157015000Y-86370000D01*
G75*
G02*
X157115000Y-86270000I100000J0D01*
G01*
X157315000Y-86270000D01*
G75*
G02*
X157415000Y-86370000I0J-100000D01*
G01*
X157415000Y-88670000D01*
G75*
G02*
X157315000Y-88770000I-100000J0D01*
G01*
G37*
G36*
G01*
X156665000Y-88770000D02*
X156465000Y-88770000D01*
G75*
G02*
X156365000Y-88670000I0J100000D01*
G01*
X156365000Y-86370000D01*
G75*
G02*
X156465000Y-86270000I100000J0D01*
G01*
X156665000Y-86270000D01*
G75*
G02*
X156765000Y-86370000I0J-100000D01*
G01*
X156765000Y-88670000D01*
G75*
G02*
X156665000Y-88770000I-100000J0D01*
G01*
G37*
G36*
G01*
X156015000Y-88770000D02*
X155815000Y-88770000D01*
G75*
G02*
X155715000Y-88670000I0J100000D01*
G01*
X155715000Y-86370000D01*
G75*
G02*
X155815000Y-86270000I100000J0D01*
G01*
X156015000Y-86270000D01*
G75*
G02*
X156115000Y-86370000I0J-100000D01*
G01*
X156115000Y-88670000D01*
G75*
G02*
X156015000Y-88770000I-100000J0D01*
G01*
G37*
G36*
G01*
X155365000Y-88770000D02*
X155165000Y-88770000D01*
G75*
G02*
X155065000Y-88670000I0J100000D01*
G01*
X155065000Y-86370000D01*
G75*
G02*
X155165000Y-86270000I100000J0D01*
G01*
X155365000Y-86270000D01*
G75*
G02*
X155465000Y-86370000I0J-100000D01*
G01*
X155465000Y-88670000D01*
G75*
G02*
X155365000Y-88770000I-100000J0D01*
G01*
G37*
G36*
G01*
X154715000Y-88770000D02*
X154515000Y-88770000D01*
G75*
G02*
X154415000Y-88670000I0J100000D01*
G01*
X154415000Y-86370000D01*
G75*
G02*
X154515000Y-86270000I100000J0D01*
G01*
X154715000Y-86270000D01*
G75*
G02*
X154815000Y-86370000I0J-100000D01*
G01*
X154815000Y-88670000D01*
G75*
G02*
X154715000Y-88770000I-100000J0D01*
G01*
G37*
G36*
G01*
X154065000Y-88770000D02*
X153865000Y-88770000D01*
G75*
G02*
X153765000Y-88670000I0J100000D01*
G01*
X153765000Y-86370000D01*
G75*
G02*
X153865000Y-86270000I100000J0D01*
G01*
X154065000Y-86270000D01*
G75*
G02*
X154165000Y-86370000I0J-100000D01*
G01*
X154165000Y-88670000D01*
G75*
G02*
X154065000Y-88770000I-100000J0D01*
G01*
G37*
G36*
G01*
X153415000Y-88770000D02*
X153215000Y-88770000D01*
G75*
G02*
X153115000Y-88670000I0J100000D01*
G01*
X153115000Y-86370000D01*
G75*
G02*
X153215000Y-86270000I100000J0D01*
G01*
X153415000Y-86270000D01*
G75*
G02*
X153515000Y-86370000I0J-100000D01*
G01*
X153515000Y-88670000D01*
G75*
G02*
X153415000Y-88770000I-100000J0D01*
G01*
G37*
G36*
G01*
X152765000Y-88770000D02*
X152565000Y-88770000D01*
G75*
G02*
X152465000Y-88670000I0J100000D01*
G01*
X152465000Y-86370000D01*
G75*
G02*
X152565000Y-86270000I100000J0D01*
G01*
X152765000Y-86270000D01*
G75*
G02*
X152865000Y-86370000I0J-100000D01*
G01*
X152865000Y-88670000D01*
G75*
G02*
X152765000Y-88770000I-100000J0D01*
G01*
G37*
G36*
G01*
X152115000Y-88770000D02*
X151915000Y-88770000D01*
G75*
G02*
X151815000Y-88670000I0J100000D01*
G01*
X151815000Y-86370000D01*
G75*
G02*
X151915000Y-86270000I100000J0D01*
G01*
X152115000Y-86270000D01*
G75*
G02*
X152215000Y-86370000I0J-100000D01*
G01*
X152215000Y-88670000D01*
G75*
G02*
X152115000Y-88770000I-100000J0D01*
G01*
G37*
G36*
G01*
X151465000Y-88770000D02*
X151265000Y-88770000D01*
G75*
G02*
X151165000Y-88670000I0J100000D01*
G01*
X151165000Y-86370000D01*
G75*
G02*
X151265000Y-86270000I100000J0D01*
G01*
X151465000Y-86270000D01*
G75*
G02*
X151565000Y-86370000I0J-100000D01*
G01*
X151565000Y-88670000D01*
G75*
G02*
X151465000Y-88770000I-100000J0D01*
G01*
G37*
G36*
G01*
X150815000Y-88770000D02*
X150615000Y-88770000D01*
G75*
G02*
X150515000Y-88670000I0J100000D01*
G01*
X150515000Y-86370000D01*
G75*
G02*
X150615000Y-86270000I100000J0D01*
G01*
X150815000Y-86270000D01*
G75*
G02*
X150915000Y-86370000I0J-100000D01*
G01*
X150915000Y-88670000D01*
G75*
G02*
X150815000Y-88770000I-100000J0D01*
G01*
G37*
G36*
G01*
X150165000Y-88770000D02*
X149965000Y-88770000D01*
G75*
G02*
X149865000Y-88670000I0J100000D01*
G01*
X149865000Y-86370000D01*
G75*
G02*
X149965000Y-86270000I100000J0D01*
G01*
X150165000Y-86270000D01*
G75*
G02*
X150265000Y-86370000I0J-100000D01*
G01*
X150265000Y-88670000D01*
G75*
G02*
X150165000Y-88770000I-100000J0D01*
G01*
G37*
G36*
G01*
X149515000Y-88770000D02*
X149315000Y-88770000D01*
G75*
G02*
X149215000Y-88670000I0J100000D01*
G01*
X149215000Y-86370000D01*
G75*
G02*
X149315000Y-86270000I100000J0D01*
G01*
X149515000Y-86270000D01*
G75*
G02*
X149615000Y-86370000I0J-100000D01*
G01*
X149615000Y-88670000D01*
G75*
G02*
X149515000Y-88770000I-100000J0D01*
G01*
G37*
G36*
G01*
X148865000Y-88770000D02*
X148665000Y-88770000D01*
G75*
G02*
X148565000Y-88670000I0J100000D01*
G01*
X148565000Y-86370000D01*
G75*
G02*
X148665000Y-86270000I100000J0D01*
G01*
X148865000Y-86270000D01*
G75*
G02*
X148965000Y-86370000I0J-100000D01*
G01*
X148965000Y-88670000D01*
G75*
G02*
X148865000Y-88770000I-100000J0D01*
G01*
G37*
G36*
G01*
X148215000Y-88770000D02*
X148015000Y-88770000D01*
G75*
G02*
X147915000Y-88670000I0J100000D01*
G01*
X147915000Y-86370000D01*
G75*
G02*
X148015000Y-86270000I100000J0D01*
G01*
X148215000Y-86270000D01*
G75*
G02*
X148315000Y-86370000I0J-100000D01*
G01*
X148315000Y-88670000D01*
G75*
G02*
X148215000Y-88770000I-100000J0D01*
G01*
G37*
G36*
G01*
X147565000Y-88770000D02*
X147365000Y-88770000D01*
G75*
G02*
X147265000Y-88670000I0J100000D01*
G01*
X147265000Y-86370000D01*
G75*
G02*
X147365000Y-86270000I100000J0D01*
G01*
X147565000Y-86270000D01*
G75*
G02*
X147665000Y-86370000I0J-100000D01*
G01*
X147665000Y-88670000D01*
G75*
G02*
X147565000Y-88770000I-100000J0D01*
G01*
G37*
G36*
G01*
X146915000Y-88770000D02*
X146715000Y-88770000D01*
G75*
G02*
X146615000Y-88670000I0J100000D01*
G01*
X146615000Y-86370000D01*
G75*
G02*
X146715000Y-86270000I100000J0D01*
G01*
X146915000Y-86270000D01*
G75*
G02*
X147015000Y-86370000I0J-100000D01*
G01*
X147015000Y-88670000D01*
G75*
G02*
X146915000Y-88770000I-100000J0D01*
G01*
G37*
G36*
G01*
X146265000Y-88770000D02*
X146065000Y-88770000D01*
G75*
G02*
X145965000Y-88670000I0J100000D01*
G01*
X145965000Y-86370000D01*
G75*
G02*
X146065000Y-86270000I100000J0D01*
G01*
X146265000Y-86270000D01*
G75*
G02*
X146365000Y-86370000I0J-100000D01*
G01*
X146365000Y-88670000D01*
G75*
G02*
X146265000Y-88770000I-100000J0D01*
G01*
G37*
G36*
G01*
X145615000Y-88770000D02*
X145415000Y-88770000D01*
G75*
G02*
X145315000Y-88670000I0J100000D01*
G01*
X145315000Y-86370000D01*
G75*
G02*
X145415000Y-86270000I100000J0D01*
G01*
X145615000Y-86270000D01*
G75*
G02*
X145715000Y-86370000I0J-100000D01*
G01*
X145715000Y-88670000D01*
G75*
G02*
X145615000Y-88770000I-100000J0D01*
G01*
G37*
G36*
G01*
X144190000Y-90245000D02*
X144190000Y-90445000D01*
G75*
G02*
X144090000Y-90545000I-100000J0D01*
G01*
X141790000Y-90545000D01*
G75*
G02*
X141690000Y-90445000I0J100000D01*
G01*
X141690000Y-90245000D01*
G75*
G02*
X141790000Y-90145000I100000J0D01*
G01*
X144090000Y-90145000D01*
G75*
G02*
X144190000Y-90245000I0J-100000D01*
G01*
G37*
G36*
G01*
X144190000Y-90895000D02*
X144190000Y-91095000D01*
G75*
G02*
X144090000Y-91195000I-100000J0D01*
G01*
X141790000Y-91195000D01*
G75*
G02*
X141690000Y-91095000I0J100000D01*
G01*
X141690000Y-90895000D01*
G75*
G02*
X141790000Y-90795000I100000J0D01*
G01*
X144090000Y-90795000D01*
G75*
G02*
X144190000Y-90895000I0J-100000D01*
G01*
G37*
G36*
G01*
X144190000Y-91545000D02*
X144190000Y-91745000D01*
G75*
G02*
X144090000Y-91845000I-100000J0D01*
G01*
X141790000Y-91845000D01*
G75*
G02*
X141690000Y-91745000I0J100000D01*
G01*
X141690000Y-91545000D01*
G75*
G02*
X141790000Y-91445000I100000J0D01*
G01*
X144090000Y-91445000D01*
G75*
G02*
X144190000Y-91545000I0J-100000D01*
G01*
G37*
G36*
G01*
X144190000Y-92195000D02*
X144190000Y-92395000D01*
G75*
G02*
X144090000Y-92495000I-100000J0D01*
G01*
X141790000Y-92495000D01*
G75*
G02*
X141690000Y-92395000I0J100000D01*
G01*
X141690000Y-92195000D01*
G75*
G02*
X141790000Y-92095000I100000J0D01*
G01*
X144090000Y-92095000D01*
G75*
G02*
X144190000Y-92195000I0J-100000D01*
G01*
G37*
G36*
G01*
X144190000Y-92845000D02*
X144190000Y-93045000D01*
G75*
G02*
X144090000Y-93145000I-100000J0D01*
G01*
X141790000Y-93145000D01*
G75*
G02*
X141690000Y-93045000I0J100000D01*
G01*
X141690000Y-92845000D01*
G75*
G02*
X141790000Y-92745000I100000J0D01*
G01*
X144090000Y-92745000D01*
G75*
G02*
X144190000Y-92845000I0J-100000D01*
G01*
G37*
G36*
G01*
X144190000Y-93495000D02*
X144190000Y-93695000D01*
G75*
G02*
X144090000Y-93795000I-100000J0D01*
G01*
X141790000Y-93795000D01*
G75*
G02*
X141690000Y-93695000I0J100000D01*
G01*
X141690000Y-93495000D01*
G75*
G02*
X141790000Y-93395000I100000J0D01*
G01*
X144090000Y-93395000D01*
G75*
G02*
X144190000Y-93495000I0J-100000D01*
G01*
G37*
G36*
G01*
X144190000Y-94145000D02*
X144190000Y-94345000D01*
G75*
G02*
X144090000Y-94445000I-100000J0D01*
G01*
X141790000Y-94445000D01*
G75*
G02*
X141690000Y-94345000I0J100000D01*
G01*
X141690000Y-94145000D01*
G75*
G02*
X141790000Y-94045000I100000J0D01*
G01*
X144090000Y-94045000D01*
G75*
G02*
X144190000Y-94145000I0J-100000D01*
G01*
G37*
G36*
G01*
X144190000Y-94795000D02*
X144190000Y-94995000D01*
G75*
G02*
X144090000Y-95095000I-100000J0D01*
G01*
X141790000Y-95095000D01*
G75*
G02*
X141690000Y-94995000I0J100000D01*
G01*
X141690000Y-94795000D01*
G75*
G02*
X141790000Y-94695000I100000J0D01*
G01*
X144090000Y-94695000D01*
G75*
G02*
X144190000Y-94795000I0J-100000D01*
G01*
G37*
G36*
G01*
X144190000Y-95445000D02*
X144190000Y-95645000D01*
G75*
G02*
X144090000Y-95745000I-100000J0D01*
G01*
X141790000Y-95745000D01*
G75*
G02*
X141690000Y-95645000I0J100000D01*
G01*
X141690000Y-95445000D01*
G75*
G02*
X141790000Y-95345000I100000J0D01*
G01*
X144090000Y-95345000D01*
G75*
G02*
X144190000Y-95445000I0J-100000D01*
G01*
G37*
G36*
G01*
X144190000Y-96095000D02*
X144190000Y-96295000D01*
G75*
G02*
X144090000Y-96395000I-100000J0D01*
G01*
X141790000Y-96395000D01*
G75*
G02*
X141690000Y-96295000I0J100000D01*
G01*
X141690000Y-96095000D01*
G75*
G02*
X141790000Y-95995000I100000J0D01*
G01*
X144090000Y-95995000D01*
G75*
G02*
X144190000Y-96095000I0J-100000D01*
G01*
G37*
G36*
G01*
X144190000Y-96745000D02*
X144190000Y-96945000D01*
G75*
G02*
X144090000Y-97045000I-100000J0D01*
G01*
X141790000Y-97045000D01*
G75*
G02*
X141690000Y-96945000I0J100000D01*
G01*
X141690000Y-96745000D01*
G75*
G02*
X141790000Y-96645000I100000J0D01*
G01*
X144090000Y-96645000D01*
G75*
G02*
X144190000Y-96745000I0J-100000D01*
G01*
G37*
G36*
G01*
X144190000Y-97395000D02*
X144190000Y-97595000D01*
G75*
G02*
X144090000Y-97695000I-100000J0D01*
G01*
X141790000Y-97695000D01*
G75*
G02*
X141690000Y-97595000I0J100000D01*
G01*
X141690000Y-97395000D01*
G75*
G02*
X141790000Y-97295000I100000J0D01*
G01*
X144090000Y-97295000D01*
G75*
G02*
X144190000Y-97395000I0J-100000D01*
G01*
G37*
G36*
G01*
X144190000Y-98045000D02*
X144190000Y-98245000D01*
G75*
G02*
X144090000Y-98345000I-100000J0D01*
G01*
X141790000Y-98345000D01*
G75*
G02*
X141690000Y-98245000I0J100000D01*
G01*
X141690000Y-98045000D01*
G75*
G02*
X141790000Y-97945000I100000J0D01*
G01*
X144090000Y-97945000D01*
G75*
G02*
X144190000Y-98045000I0J-100000D01*
G01*
G37*
G36*
G01*
X144190000Y-98695000D02*
X144190000Y-98895000D01*
G75*
G02*
X144090000Y-98995000I-100000J0D01*
G01*
X141790000Y-98995000D01*
G75*
G02*
X141690000Y-98895000I0J100000D01*
G01*
X141690000Y-98695000D01*
G75*
G02*
X141790000Y-98595000I100000J0D01*
G01*
X144090000Y-98595000D01*
G75*
G02*
X144190000Y-98695000I0J-100000D01*
G01*
G37*
G36*
G01*
X144190000Y-99345000D02*
X144190000Y-99545000D01*
G75*
G02*
X144090000Y-99645000I-100000J0D01*
G01*
X141790000Y-99645000D01*
G75*
G02*
X141690000Y-99545000I0J100000D01*
G01*
X141690000Y-99345000D01*
G75*
G02*
X141790000Y-99245000I100000J0D01*
G01*
X144090000Y-99245000D01*
G75*
G02*
X144190000Y-99345000I0J-100000D01*
G01*
G37*
G36*
G01*
X144190000Y-99995000D02*
X144190000Y-100195000D01*
G75*
G02*
X144090000Y-100295000I-100000J0D01*
G01*
X141790000Y-100295000D01*
G75*
G02*
X141690000Y-100195000I0J100000D01*
G01*
X141690000Y-99995000D01*
G75*
G02*
X141790000Y-99895000I100000J0D01*
G01*
X144090000Y-99895000D01*
G75*
G02*
X144190000Y-99995000I0J-100000D01*
G01*
G37*
G36*
G01*
X144190000Y-100645000D02*
X144190000Y-100845000D01*
G75*
G02*
X144090000Y-100945000I-100000J0D01*
G01*
X141790000Y-100945000D01*
G75*
G02*
X141690000Y-100845000I0J100000D01*
G01*
X141690000Y-100645000D01*
G75*
G02*
X141790000Y-100545000I100000J0D01*
G01*
X144090000Y-100545000D01*
G75*
G02*
X144190000Y-100645000I0J-100000D01*
G01*
G37*
G36*
G01*
X144190000Y-101295000D02*
X144190000Y-101495000D01*
G75*
G02*
X144090000Y-101595000I-100000J0D01*
G01*
X141790000Y-101595000D01*
G75*
G02*
X141690000Y-101495000I0J100000D01*
G01*
X141690000Y-101295000D01*
G75*
G02*
X141790000Y-101195000I100000J0D01*
G01*
X144090000Y-101195000D01*
G75*
G02*
X144190000Y-101295000I0J-100000D01*
G01*
G37*
G36*
G01*
X144190000Y-101945000D02*
X144190000Y-102145000D01*
G75*
G02*
X144090000Y-102245000I-100000J0D01*
G01*
X141790000Y-102245000D01*
G75*
G02*
X141690000Y-102145000I0J100000D01*
G01*
X141690000Y-101945000D01*
G75*
G02*
X141790000Y-101845000I100000J0D01*
G01*
X144090000Y-101845000D01*
G75*
G02*
X144190000Y-101945000I0J-100000D01*
G01*
G37*
G36*
G01*
X144190000Y-102595000D02*
X144190000Y-102795000D01*
G75*
G02*
X144090000Y-102895000I-100000J0D01*
G01*
X141790000Y-102895000D01*
G75*
G02*
X141690000Y-102795000I0J100000D01*
G01*
X141690000Y-102595000D01*
G75*
G02*
X141790000Y-102495000I100000J0D01*
G01*
X144090000Y-102495000D01*
G75*
G02*
X144190000Y-102595000I0J-100000D01*
G01*
G37*
%TD*%
D18*
%TO.C,J1*%
X189230000Y-99060000D03*
D19*
X186690000Y-97790000D03*
X189230000Y-96520000D03*
X186690000Y-95250000D03*
X189230000Y-93980000D03*
X186690000Y-92710000D03*
X189230000Y-91440000D03*
X186690000Y-90170000D03*
D20*
X198950000Y-88290000D03*
X200470000Y-90830000D03*
X198950000Y-98400000D03*
X200470000Y-100940000D03*
D21*
X192520000Y-102390000D03*
X192520000Y-86840000D03*
D22*
X195570000Y-100330000D03*
X195570000Y-88900000D03*
%TD*%
D14*
%TO.C,RN4*%
X156280000Y-75830000D03*
D15*
X157880000Y-75830000D03*
X157080000Y-75830000D03*
D14*
X158680000Y-75830000D03*
D15*
X157080000Y-74030000D03*
D14*
X156280000Y-74030000D03*
D15*
X157880000Y-74030000D03*
D14*
X158680000Y-74030000D03*
%TD*%
%TO.C,C9*%
G36*
G01*
X167475000Y-118137500D02*
X167475000Y-119987500D01*
G75*
G02*
X167225000Y-120237500I-250000J0D01*
G01*
X166225000Y-120237500D01*
G75*
G02*
X165975000Y-119987500I0J250000D01*
G01*
X165975000Y-118137500D01*
G75*
G02*
X166225000Y-117887500I250000J0D01*
G01*
X167225000Y-117887500D01*
G75*
G02*
X167475000Y-118137500I0J-250000D01*
G01*
G37*
G36*
G01*
X164225000Y-118137500D02*
X164225000Y-119987500D01*
G75*
G02*
X163975000Y-120237500I-250000J0D01*
G01*
X162975000Y-120237500D01*
G75*
G02*
X162725000Y-119987500I0J250000D01*
G01*
X162725000Y-118137500D01*
G75*
G02*
X162975000Y-117887500I250000J0D01*
G01*
X163975000Y-117887500D01*
G75*
G02*
X164225000Y-118137500I0J-250000D01*
G01*
G37*
%TD*%
%TO.C,C10*%
G36*
G01*
X105805000Y-118137500D02*
X105805000Y-119987500D01*
G75*
G02*
X105555000Y-120237500I-250000J0D01*
G01*
X104555000Y-120237500D01*
G75*
G02*
X104305000Y-119987500I0J250000D01*
G01*
X104305000Y-118137500D01*
G75*
G02*
X104555000Y-117887500I250000J0D01*
G01*
X105555000Y-117887500D01*
G75*
G02*
X105805000Y-118137500I0J-250000D01*
G01*
G37*
G36*
G01*
X109055000Y-118137500D02*
X109055000Y-119987500D01*
G75*
G02*
X108805000Y-120237500I-250000J0D01*
G01*
X107805000Y-120237500D01*
G75*
G02*
X107555000Y-119987500I0J250000D01*
G01*
X107555000Y-118137500D01*
G75*
G02*
X107805000Y-117887500I250000J0D01*
G01*
X108805000Y-117887500D01*
G75*
G02*
X109055000Y-118137500I0J-250000D01*
G01*
G37*
%TD*%
M02*
