%TF.GenerationSoftware,KiCad,Pcbnew,(5.1.8)-1*%
%TF.CreationDate,2021-04-30T16:31:18-07:00*%
%TF.ProjectId,ISA8_Ethernet,49534138-5f45-4746-9865-726e65742e6b,1.0*%
%TF.SameCoordinates,Original*%
%TF.FileFunction,Soldermask,Bot*%
%TF.FilePolarity,Negative*%
%FSLAX46Y46*%
G04 Gerber Fmt 4.6, Leading zero omitted, Abs format (unit mm)*
G04 Created by KiCad (PCBNEW (5.1.8)-1) date 2021-04-30 16:31:18*
%MOMM*%
%LPD*%
G01*
G04 APERTURE LIST*
%ADD10C,1.524000*%
%ADD11R,1.524000X1.524000*%
%ADD12C,1.397000*%
%ADD13R,1.397000X1.397000*%
%ADD14C,6.400000*%
%ADD15C,0.800000*%
%ADD16R,1.900000X1.900000*%
%ADD17C,1.900000*%
%ADD18C,1.890000*%
%ADD19C,2.600000*%
%ADD20C,3.250000*%
G04 APERTURE END LIST*
D10*
%TO.C,J2*%
X107950000Y-113030000D03*
X105410000Y-113030000D03*
X107950000Y-110490000D03*
X105410000Y-110490000D03*
X107950000Y-107950000D03*
X105410000Y-107950000D03*
X107950000Y-105410000D03*
X105410000Y-105410000D03*
X107950000Y-102870000D03*
X105410000Y-102870000D03*
X105410000Y-100330000D03*
X107950000Y-100330000D03*
X105410000Y-97790000D03*
X107950000Y-97790000D03*
X107950000Y-95250000D03*
X105410000Y-95250000D03*
X107950000Y-92710000D03*
X105410000Y-92710000D03*
X107950000Y-90170000D03*
X105410000Y-90170000D03*
X107950000Y-87630000D03*
X105410000Y-87630000D03*
X107950000Y-85090000D03*
X105410000Y-85090000D03*
X107950000Y-82550000D03*
X105410000Y-82550000D03*
X107950000Y-80010000D03*
X105410000Y-80010000D03*
X107950000Y-77470000D03*
X105410000Y-77470000D03*
X107950000Y-74930000D03*
X105410000Y-74930000D03*
X107950000Y-72390000D03*
X105410000Y-72390000D03*
X107950000Y-69850000D03*
X105410000Y-69850000D03*
X107950000Y-67310000D03*
X105410000Y-67310000D03*
X107950000Y-64770000D03*
D11*
X105410000Y-64770000D03*
%TD*%
%TO.C,BUS1*%
G36*
G01*
X179451000Y-134112000D02*
X179451000Y-126873000D01*
G75*
G02*
X179895500Y-126428500I444500J0D01*
G01*
X180784500Y-126428500D01*
G75*
G02*
X181229000Y-126873000I0J-444500D01*
G01*
X181229000Y-134112000D01*
G75*
G02*
X180784500Y-134556500I-444500J0D01*
G01*
X179895500Y-134556500D01*
G75*
G02*
X179451000Y-134112000I0J444500D01*
G01*
G37*
G36*
G01*
X176911000Y-134112000D02*
X176911000Y-126873000D01*
G75*
G02*
X177355500Y-126428500I444500J0D01*
G01*
X178244500Y-126428500D01*
G75*
G02*
X178689000Y-126873000I0J-444500D01*
G01*
X178689000Y-134112000D01*
G75*
G02*
X178244500Y-134556500I-444500J0D01*
G01*
X177355500Y-134556500D01*
G75*
G02*
X176911000Y-134112000I0J444500D01*
G01*
G37*
G36*
G01*
X174371000Y-134112000D02*
X174371000Y-126873000D01*
G75*
G02*
X174815500Y-126428500I444500J0D01*
G01*
X175704500Y-126428500D01*
G75*
G02*
X176149000Y-126873000I0J-444500D01*
G01*
X176149000Y-134112000D01*
G75*
G02*
X175704500Y-134556500I-444500J0D01*
G01*
X174815500Y-134556500D01*
G75*
G02*
X174371000Y-134112000I0J444500D01*
G01*
G37*
G36*
G01*
X171831000Y-134112000D02*
X171831000Y-126873000D01*
G75*
G02*
X172275500Y-126428500I444500J0D01*
G01*
X173164500Y-126428500D01*
G75*
G02*
X173609000Y-126873000I0J-444500D01*
G01*
X173609000Y-134112000D01*
G75*
G02*
X173164500Y-134556500I-444500J0D01*
G01*
X172275500Y-134556500D01*
G75*
G02*
X171831000Y-134112000I0J444500D01*
G01*
G37*
G36*
G01*
X169291000Y-134112000D02*
X169291000Y-126873000D01*
G75*
G02*
X169735500Y-126428500I444500J0D01*
G01*
X170624500Y-126428500D01*
G75*
G02*
X171069000Y-126873000I0J-444500D01*
G01*
X171069000Y-134112000D01*
G75*
G02*
X170624500Y-134556500I-444500J0D01*
G01*
X169735500Y-134556500D01*
G75*
G02*
X169291000Y-134112000I0J444500D01*
G01*
G37*
G36*
G01*
X166751000Y-134112000D02*
X166751000Y-126873000D01*
G75*
G02*
X167195500Y-126428500I444500J0D01*
G01*
X168084500Y-126428500D01*
G75*
G02*
X168529000Y-126873000I0J-444500D01*
G01*
X168529000Y-134112000D01*
G75*
G02*
X168084500Y-134556500I-444500J0D01*
G01*
X167195500Y-134556500D01*
G75*
G02*
X166751000Y-134112000I0J444500D01*
G01*
G37*
G36*
G01*
X164211000Y-134112000D02*
X164211000Y-126873000D01*
G75*
G02*
X164655500Y-126428500I444500J0D01*
G01*
X165544500Y-126428500D01*
G75*
G02*
X165989000Y-126873000I0J-444500D01*
G01*
X165989000Y-134112000D01*
G75*
G02*
X165544500Y-134556500I-444500J0D01*
G01*
X164655500Y-134556500D01*
G75*
G02*
X164211000Y-134112000I0J444500D01*
G01*
G37*
G36*
G01*
X161671000Y-134112000D02*
X161671000Y-126873000D01*
G75*
G02*
X162115500Y-126428500I444500J0D01*
G01*
X163004500Y-126428500D01*
G75*
G02*
X163449000Y-126873000I0J-444500D01*
G01*
X163449000Y-134112000D01*
G75*
G02*
X163004500Y-134556500I-444500J0D01*
G01*
X162115500Y-134556500D01*
G75*
G02*
X161671000Y-134112000I0J444500D01*
G01*
G37*
G36*
G01*
X159131000Y-134112000D02*
X159131000Y-126873000D01*
G75*
G02*
X159575500Y-126428500I444500J0D01*
G01*
X160464500Y-126428500D01*
G75*
G02*
X160909000Y-126873000I0J-444500D01*
G01*
X160909000Y-134112000D01*
G75*
G02*
X160464500Y-134556500I-444500J0D01*
G01*
X159575500Y-134556500D01*
G75*
G02*
X159131000Y-134112000I0J444500D01*
G01*
G37*
G36*
G01*
X156591000Y-134112000D02*
X156591000Y-126873000D01*
G75*
G02*
X157035500Y-126428500I444500J0D01*
G01*
X157924500Y-126428500D01*
G75*
G02*
X158369000Y-126873000I0J-444500D01*
G01*
X158369000Y-134112000D01*
G75*
G02*
X157924500Y-134556500I-444500J0D01*
G01*
X157035500Y-134556500D01*
G75*
G02*
X156591000Y-134112000I0J444500D01*
G01*
G37*
G36*
G01*
X154051000Y-134112000D02*
X154051000Y-126873000D01*
G75*
G02*
X154495500Y-126428500I444500J0D01*
G01*
X155384500Y-126428500D01*
G75*
G02*
X155829000Y-126873000I0J-444500D01*
G01*
X155829000Y-134112000D01*
G75*
G02*
X155384500Y-134556500I-444500J0D01*
G01*
X154495500Y-134556500D01*
G75*
G02*
X154051000Y-134112000I0J444500D01*
G01*
G37*
G36*
G01*
X151511000Y-134112000D02*
X151511000Y-126873000D01*
G75*
G02*
X151955500Y-126428500I444500J0D01*
G01*
X152844500Y-126428500D01*
G75*
G02*
X153289000Y-126873000I0J-444500D01*
G01*
X153289000Y-134112000D01*
G75*
G02*
X152844500Y-134556500I-444500J0D01*
G01*
X151955500Y-134556500D01*
G75*
G02*
X151511000Y-134112000I0J444500D01*
G01*
G37*
G36*
G01*
X148971000Y-134112000D02*
X148971000Y-126873000D01*
G75*
G02*
X149415500Y-126428500I444500J0D01*
G01*
X150304500Y-126428500D01*
G75*
G02*
X150749000Y-126873000I0J-444500D01*
G01*
X150749000Y-134112000D01*
G75*
G02*
X150304500Y-134556500I-444500J0D01*
G01*
X149415500Y-134556500D01*
G75*
G02*
X148971000Y-134112000I0J444500D01*
G01*
G37*
G36*
G01*
X146431000Y-134112000D02*
X146431000Y-126873000D01*
G75*
G02*
X146875500Y-126428500I444500J0D01*
G01*
X147764500Y-126428500D01*
G75*
G02*
X148209000Y-126873000I0J-444500D01*
G01*
X148209000Y-134112000D01*
G75*
G02*
X147764500Y-134556500I-444500J0D01*
G01*
X146875500Y-134556500D01*
G75*
G02*
X146431000Y-134112000I0J444500D01*
G01*
G37*
G36*
G01*
X143891000Y-134112000D02*
X143891000Y-126873000D01*
G75*
G02*
X144335500Y-126428500I444500J0D01*
G01*
X145224500Y-126428500D01*
G75*
G02*
X145669000Y-126873000I0J-444500D01*
G01*
X145669000Y-134112000D01*
G75*
G02*
X145224500Y-134556500I-444500J0D01*
G01*
X144335500Y-134556500D01*
G75*
G02*
X143891000Y-134112000I0J444500D01*
G01*
G37*
G36*
G01*
X141351000Y-134112000D02*
X141351000Y-126873000D01*
G75*
G02*
X141795500Y-126428500I444500J0D01*
G01*
X142684500Y-126428500D01*
G75*
G02*
X143129000Y-126873000I0J-444500D01*
G01*
X143129000Y-134112000D01*
G75*
G02*
X142684500Y-134556500I-444500J0D01*
G01*
X141795500Y-134556500D01*
G75*
G02*
X141351000Y-134112000I0J444500D01*
G01*
G37*
G36*
G01*
X138811000Y-134112000D02*
X138811000Y-126873000D01*
G75*
G02*
X139255500Y-126428500I444500J0D01*
G01*
X140144500Y-126428500D01*
G75*
G02*
X140589000Y-126873000I0J-444500D01*
G01*
X140589000Y-134112000D01*
G75*
G02*
X140144500Y-134556500I-444500J0D01*
G01*
X139255500Y-134556500D01*
G75*
G02*
X138811000Y-134112000I0J444500D01*
G01*
G37*
G36*
G01*
X136271000Y-134112000D02*
X136271000Y-126873000D01*
G75*
G02*
X136715500Y-126428500I444500J0D01*
G01*
X137604500Y-126428500D01*
G75*
G02*
X138049000Y-126873000I0J-444500D01*
G01*
X138049000Y-134112000D01*
G75*
G02*
X137604500Y-134556500I-444500J0D01*
G01*
X136715500Y-134556500D01*
G75*
G02*
X136271000Y-134112000I0J444500D01*
G01*
G37*
G36*
G01*
X133731000Y-134112000D02*
X133731000Y-126873000D01*
G75*
G02*
X134175500Y-126428500I444500J0D01*
G01*
X135064500Y-126428500D01*
G75*
G02*
X135509000Y-126873000I0J-444500D01*
G01*
X135509000Y-134112000D01*
G75*
G02*
X135064500Y-134556500I-444500J0D01*
G01*
X134175500Y-134556500D01*
G75*
G02*
X133731000Y-134112000I0J444500D01*
G01*
G37*
G36*
G01*
X131191000Y-134112000D02*
X131191000Y-126873000D01*
G75*
G02*
X131635500Y-126428500I444500J0D01*
G01*
X132524500Y-126428500D01*
G75*
G02*
X132969000Y-126873000I0J-444500D01*
G01*
X132969000Y-134112000D01*
G75*
G02*
X132524500Y-134556500I-444500J0D01*
G01*
X131635500Y-134556500D01*
G75*
G02*
X131191000Y-134112000I0J444500D01*
G01*
G37*
G36*
G01*
X128651000Y-134112000D02*
X128651000Y-126873000D01*
G75*
G02*
X129095500Y-126428500I444500J0D01*
G01*
X129984500Y-126428500D01*
G75*
G02*
X130429000Y-126873000I0J-444500D01*
G01*
X130429000Y-134112000D01*
G75*
G02*
X129984500Y-134556500I-444500J0D01*
G01*
X129095500Y-134556500D01*
G75*
G02*
X128651000Y-134112000I0J444500D01*
G01*
G37*
G36*
G01*
X126111000Y-134112000D02*
X126111000Y-126873000D01*
G75*
G02*
X126555500Y-126428500I444500J0D01*
G01*
X127444500Y-126428500D01*
G75*
G02*
X127889000Y-126873000I0J-444500D01*
G01*
X127889000Y-134112000D01*
G75*
G02*
X127444500Y-134556500I-444500J0D01*
G01*
X126555500Y-134556500D01*
G75*
G02*
X126111000Y-134112000I0J444500D01*
G01*
G37*
G36*
G01*
X123571000Y-134112000D02*
X123571000Y-126873000D01*
G75*
G02*
X124015500Y-126428500I444500J0D01*
G01*
X124904500Y-126428500D01*
G75*
G02*
X125349000Y-126873000I0J-444500D01*
G01*
X125349000Y-134112000D01*
G75*
G02*
X124904500Y-134556500I-444500J0D01*
G01*
X124015500Y-134556500D01*
G75*
G02*
X123571000Y-134112000I0J444500D01*
G01*
G37*
G36*
G01*
X121031000Y-134112000D02*
X121031000Y-126873000D01*
G75*
G02*
X121475500Y-126428500I444500J0D01*
G01*
X122364500Y-126428500D01*
G75*
G02*
X122809000Y-126873000I0J-444500D01*
G01*
X122809000Y-134112000D01*
G75*
G02*
X122364500Y-134556500I-444500J0D01*
G01*
X121475500Y-134556500D01*
G75*
G02*
X121031000Y-134112000I0J444500D01*
G01*
G37*
G36*
G01*
X118491000Y-134112000D02*
X118491000Y-126873000D01*
G75*
G02*
X118935500Y-126428500I444500J0D01*
G01*
X119824500Y-126428500D01*
G75*
G02*
X120269000Y-126873000I0J-444500D01*
G01*
X120269000Y-134112000D01*
G75*
G02*
X119824500Y-134556500I-444500J0D01*
G01*
X118935500Y-134556500D01*
G75*
G02*
X118491000Y-134112000I0J444500D01*
G01*
G37*
G36*
G01*
X115951000Y-134112000D02*
X115951000Y-126873000D01*
G75*
G02*
X116395500Y-126428500I444500J0D01*
G01*
X117284500Y-126428500D01*
G75*
G02*
X117729000Y-126873000I0J-444500D01*
G01*
X117729000Y-134112000D01*
G75*
G02*
X117284500Y-134556500I-444500J0D01*
G01*
X116395500Y-134556500D01*
G75*
G02*
X115951000Y-134112000I0J444500D01*
G01*
G37*
G36*
G01*
X113411000Y-134112000D02*
X113411000Y-126873000D01*
G75*
G02*
X113855500Y-126428500I444500J0D01*
G01*
X114744500Y-126428500D01*
G75*
G02*
X115189000Y-126873000I0J-444500D01*
G01*
X115189000Y-134112000D01*
G75*
G02*
X114744500Y-134556500I-444500J0D01*
G01*
X113855500Y-134556500D01*
G75*
G02*
X113411000Y-134112000I0J444500D01*
G01*
G37*
G36*
G01*
X110871000Y-134112000D02*
X110871000Y-126873000D01*
G75*
G02*
X111315500Y-126428500I444500J0D01*
G01*
X112204500Y-126428500D01*
G75*
G02*
X112649000Y-126873000I0J-444500D01*
G01*
X112649000Y-134112000D01*
G75*
G02*
X112204500Y-134556500I-444500J0D01*
G01*
X111315500Y-134556500D01*
G75*
G02*
X110871000Y-134112000I0J444500D01*
G01*
G37*
G36*
G01*
X108331000Y-134112000D02*
X108331000Y-126873000D01*
G75*
G02*
X108775500Y-126428500I444500J0D01*
G01*
X109664500Y-126428500D01*
G75*
G02*
X110109000Y-126873000I0J-444500D01*
G01*
X110109000Y-134112000D01*
G75*
G02*
X109664500Y-134556500I-444500J0D01*
G01*
X108775500Y-134556500D01*
G75*
G02*
X108331000Y-134112000I0J444500D01*
G01*
G37*
G36*
G01*
X105791000Y-134112000D02*
X105791000Y-126873000D01*
G75*
G02*
X106235500Y-126428500I444500J0D01*
G01*
X107124500Y-126428500D01*
G75*
G02*
X107569000Y-126873000I0J-444500D01*
G01*
X107569000Y-134112000D01*
G75*
G02*
X107124500Y-134556500I-444500J0D01*
G01*
X106235500Y-134556500D01*
G75*
G02*
X105791000Y-134112000I0J444500D01*
G01*
G37*
G36*
G01*
X103251000Y-134112000D02*
X103251000Y-126873000D01*
G75*
G02*
X103695500Y-126428500I444500J0D01*
G01*
X104584500Y-126428500D01*
G75*
G02*
X105029000Y-126873000I0J-444500D01*
G01*
X105029000Y-134112000D01*
G75*
G02*
X104584500Y-134556500I-444500J0D01*
G01*
X103695500Y-134556500D01*
G75*
G02*
X103251000Y-134112000I0J444500D01*
G01*
G37*
%TD*%
D12*
%TO.C,SW4*%
X171450000Y-62230000D03*
X173990000Y-62230000D03*
X176530000Y-62230000D03*
X179070000Y-62230000D03*
X181610000Y-62230000D03*
X181610000Y-69850000D03*
X179070000Y-69850000D03*
X176530000Y-69850000D03*
X173990000Y-69850000D03*
D13*
X171450000Y-69850000D03*
%TD*%
D12*
%TO.C,SW3*%
X156210000Y-62230000D03*
X158750000Y-62230000D03*
X161290000Y-62230000D03*
X163830000Y-62230000D03*
X163830000Y-69850000D03*
X161290000Y-69850000D03*
X158750000Y-69850000D03*
D13*
X156210000Y-69850000D03*
%TD*%
D12*
%TO.C,SW2*%
X146050000Y-62230000D03*
X148590000Y-62230000D03*
X148590000Y-69850000D03*
D13*
X146050000Y-69850000D03*
%TD*%
D12*
%TO.C,SW1*%
X135890000Y-62230000D03*
X138430000Y-62230000D03*
X138430000Y-69850000D03*
D13*
X135890000Y-69850000D03*
%TD*%
D12*
%TO.C,Y1*%
X177800000Y-83919060D03*
X177800000Y-88800940D03*
%TD*%
D13*
%TO.C,U2*%
X114300000Y-72390000D03*
D12*
X114300000Y-74930000D03*
X114300000Y-77470000D03*
X114300000Y-80010000D03*
X114300000Y-82550000D03*
X114300000Y-85090000D03*
X114300000Y-87630000D03*
X114300000Y-90170000D03*
X114300000Y-92710000D03*
X114300000Y-95250000D03*
X114300000Y-97790000D03*
X114300000Y-100330000D03*
X114300000Y-102870000D03*
X114300000Y-105410000D03*
X114300000Y-107950000D03*
X114300000Y-110490000D03*
X129540000Y-110490000D03*
X129540000Y-107950000D03*
X129540000Y-105410000D03*
X129540000Y-102870000D03*
X129540000Y-100330000D03*
X129540000Y-97790000D03*
X129540000Y-95250000D03*
X129540000Y-92710000D03*
X129540000Y-90170000D03*
X129540000Y-87630000D03*
X129540000Y-85090000D03*
X129540000Y-82550000D03*
X129540000Y-80010000D03*
X129540000Y-77470000D03*
X129540000Y-74930000D03*
X129540000Y-72390000D03*
%TD*%
D14*
%TO.C,HOLE1*%
X201041000Y-66040000D03*
D15*
X203441000Y-66040000D03*
X202738056Y-67737056D03*
X201041000Y-68440000D03*
X199343944Y-67737056D03*
X198641000Y-66040000D03*
X199343944Y-64342944D03*
X201041000Y-63640000D03*
X202738056Y-64342944D03*
%TD*%
%TO.C,HOLE2*%
X202738056Y-120857944D03*
X201041000Y-120155000D03*
X199343944Y-120857944D03*
X198641000Y-122555000D03*
X199343944Y-124252056D03*
X201041000Y-124955000D03*
X202738056Y-124252056D03*
X203441000Y-122555000D03*
D14*
X201041000Y-122555000D03*
%TD*%
D16*
%TO.C,J1*%
X189230000Y-99060000D03*
D17*
X186690000Y-97790000D03*
X189230000Y-96520000D03*
X186690000Y-95250000D03*
X189230000Y-93980000D03*
X186690000Y-92710000D03*
X189230000Y-91440000D03*
X186690000Y-90170000D03*
D18*
X198950000Y-88290000D03*
X200470000Y-90830000D03*
X198950000Y-98400000D03*
X200470000Y-100940000D03*
D19*
X192520000Y-102390000D03*
X192520000Y-86840000D03*
D20*
X195570000Y-100330000D03*
X195570000Y-88900000D03*
%TD*%
M02*
